<?xml version="1.0" encoding="UTF-8"?>
<svg version="1.1" xmlns="http://www.w3.org/2000/svg" width="1025" height="891">
    <path
        d="M0 0 C0.9881646 0.23850615 1.97632919 0.47701229 2.99443817 0.7227459 C6.27848198 1.51824216 9.55830014 2.3299247 12.83837891 3.14160156 C15.19425896 3.71557547 17.55039584 4.28849613 19.9067688 4.86044312 C24.96918155 6.09146472 30.02987668 7.32929363 35.08911133 8.57330322 C42.48589133 10.39194621 49.88589033 12.19719788 57.28685427 13.99872994 C60.74362543 14.84017561 64.2002864 15.68207349 67.65692139 16.52407837 C68.34688068 16.69214347 69.03683998 16.86020858 69.74770713 17.03336656 C74.68899324 18.23727806 79.62970153 19.44354223 84.57012939 20.65097046 C102.8771308 25.12496083 121.18987675 29.57418066 139.51025391 33.99316406 C140.70358274 34.28100391 141.89691158 34.56884377 143.1264019 34.86540604 C149.10279898 36.30672769 155.07935427 37.74739189 161.05599976 39.18768311 C168.22380832 40.91514075 175.39113844 42.64457735 182.55834961 44.37451172 C183.74502133 44.66093222 184.93169306 44.94735271 186.15432453 45.24245262 C188.5511503 45.82096233 190.94797577 46.39947325 193.34480095 46.97798538 C204.12634495 49.58010143 214.90816467 52.18107503 225.68994141 54.78222656 C226.89990028 55.07413879 228.10985916 55.36605103 229.35648346 55.66680908 C290.45895646 70.4081596 351.56465248 85.13573274 412.68994141 99.78222656 C412.68994141 100.44222656 412.68994141 101.10222656 412.68994141 101.78222656 C413.34994141 101.78222656 414.00994141 101.78222656 414.68994141 101.78222656 C405.77994141 379.97222656 405.77994141 379.97222656 396.68994141 663.78222656 C396.02994141 663.78222656 395.36994141 663.78222656 394.68994141 663.78222656 C394.68994141 664.44222656 394.68994141 665.10222656 394.68994141 665.78222656 C393.51343018 666.24781982 392.33691895 666.71341309 391.12475586 667.19311523 C367.47791089 676.55134222 343.83245316 685.91305714 320.18994141 695.28222656 C303.35801548 701.95245254 286.52487152 708.61958646 269.68994141 715.28222656 C246.25589645 724.55667434 222.82544595 733.84018295 199.39550781 743.125 C187.22513346 747.94783746 175.0544651 752.76993296 162.8838501 757.59216309 C159.57572244 758.90290876 156.26759676 760.21365942 152.95947266 761.52441406 C151.86735474 761.95713623 150.77523682 762.3898584 149.65002441 762.83569336 C142.97465784 765.48065457 136.29936053 768.12579049 129.62411499 770.77105713 C91.3488686 785.93876074 91.3488686 785.93876074 74.55322266 792.58691406 C73.56773941 792.97703674 72.58225616 793.36715942 71.56690979 793.769104 C66.67130462 795.70697964 61.77533392 797.64392262 56.87866211 799.57910156 C47.19418152 803.40766751 37.51466345 807.24807235 27.84490967 811.1137085 C22.94502404 813.07251111 18.04303266 815.02602977 13.14111328 816.97973633 C10.77468349 817.9243373 8.40910845 818.87108269 6.04443359 819.82006836 C2.75912076 821.1383622 -0.5290336 822.44931818 -3.81787109 823.75878906 C-4.79370148 824.15260773 -5.76953186 824.54642639 -6.77493286 824.95217896 C-7.68258392 825.31197845 -8.59023499 825.67177795 -9.52539062 826.04248047 C-10.30882843 826.35601471 -11.09226624 826.66954895 -11.89944458 826.99258423 C-17.2444698 828.7434486 -20.63207215 829.08926562 -25.84863281 826.84277344 C-26.90736603 826.39744263 -27.96609924 825.95211182 -29.05691528 825.49328613 C-30.18974945 825.00082397 -31.32258362 824.50836182 -32.48974609 824.00097656 C-34.31080488 823.23391395 -36.13188661 822.46690031 -37.95433617 821.70314789 C-39.2085317 821.17729316 -40.4620469 820.64981303 -41.71489906 820.12076569 C-47.99208133 817.47473982 -54.33334292 815.00444189 -60.69287109 812.56347656 C-61.80229065 812.13624298 -62.91171021 811.7090094 -64.05474854 811.26882935 C-66.33777625 810.3904412 -68.621208 809.51310253 -70.9050293 808.63677979 C-74.56638053 807.23183532 -78.2265088 805.82373271 -81.88623047 804.41455078 C-83.14910767 803.92831104 -84.41198609 803.44207448 -85.67486572 802.95584106 C-86.30179573 802.7144553 -86.92872574 802.47306953 -87.57465363 802.22436905 C-89.46973462 801.49485265 -91.3649443 800.76567152 -93.26019287 800.03659058 C-105.45111175 795.34646771 -117.63221686 790.63118514 -129.81005859 785.90722656 C-130.81740051 785.51656006 -131.82474243 785.12589355 -132.86260986 784.72338867 C-147.35021848 779.10415738 -161.82910369 773.46281874 -176.30297852 767.80831909 C-190.29737128 762.34152427 -204.30128989 756.89957276 -218.31005859 751.46972656 C-219.33220459 751.07353119 -220.35435059 750.67733582 -221.4074707 750.26913452 C-228.70808425 747.43952226 -236.00903419 744.61077851 -243.31005859 741.78222656 C-251.64362082 738.55365035 -259.97703776 735.32469989 -268.31005859 732.09472656 C-269.33284912 731.69828949 -270.35563965 731.30185242 -271.40942383 730.8934021 C-286.0477587 725.2187458 -300.67741444 719.5222468 -315.30078125 713.80914307 C-335.47362801 705.92881669 -355.66814984 698.10453658 -375.86279297 690.28027344 C-386.00240714 686.35172667 -396.14145888 682.42172928 -406.28027344 678.49111938 C-409.49974426 677.24310712 -412.71934919 675.9954413 -415.93896484 674.74780273 C-417.90121036 673.98715722 -419.86345025 673.22649721 -421.82568359 672.46582031 C-422.71604309 672.12089539 -423.60640259 671.77597046 -424.52374268 671.42059326 C-426.11716885 670.80274208 -427.70980519 670.18284733 -429.3013916 669.56027222 C-430.97346203 668.91260531 -432.65575756 668.2914129 -434.34033203 667.67700195 C-436.31005859 666.78222656 -436.31005859 666.78222656 -437.31005859 664.78222656 C-437.97005859 664.78222656 -438.63005859 664.78222656 -439.31005859 664.78222656 C-440.14844759 628.97124283 -440.9859432 593.16023822 -441.82279527 557.34921855 C-441.87236305 555.22809436 -441.92193219 553.1069702 -441.97150135 550.98584604 C-443.84814851 470.68054587 -445.71571042 390.37503877 -449.12585944 242.78399163 C-449.18525898 240.21104656 -449.24465966 237.63810151 -449.30406046 235.06515646 C-450.30665335 191.63752685 -451.30868177 148.20988423 -452.31005859 104.78222656 C-451.65005859 104.78222656 -450.99005859 104.78222656 -450.31005859 104.78222656 C-450.31005859 104.12222656 -450.31005859 103.46222656 -450.31005859 102.78222656 C-403.81485465 91.38758566 -357.31943486 79.99390592 -310.81005859 68.65722656 C-309.14955637 68.25247236 -307.48905426 67.84771772 -305.82855225 67.44296265 C-305.00319159 67.24177732 -304.17783092 67.04059198 -303.32745934 66.83331013 C-299.13935478 65.81242787 -294.9512631 64.79149282 -290.76318359 63.77050781 C-289.93367817 63.56829054 -289.10417274 63.36607327 -288.24953079 63.1577282 C-268.29890256 58.29387895 -248.35136735 53.41738556 -228.40402222 48.54009247 C-219.89877641 46.46050963 -211.39347646 44.38114819 -202.88818359 42.30175781 C-201.95351257 42.07324631 -201.01884155 41.8447348 -200.05584717 41.60929871 C-186.99132527 38.41526855 -173.92666491 35.22180553 -160.86170959 32.02954865 C-159.02644826 31.58111998 -157.19119231 31.13266929 -155.35594177 30.68419647 C-145.4650421 28.2672316 -135.57369706 25.85211813 -125.68115234 23.44189453 C-122.17721603 22.58801393 -118.67331481 21.73398948 -115.16943359 20.87988281 C-114.30927139 20.67024147 -113.44910919 20.46060013 -112.56288147 20.24460602 C-101.08671779 17.446769 -89.61648366 14.62586 -78.15100098 11.78457642 C-72.08856225 10.28243105 -66.0242734 8.7878222 -59.95948029 7.2952137 C-55.11112252 6.10129961 -50.26533795 4.89761131 -45.4213295 3.68617916 C-42.45843267 2.9477683 -39.49321892 2.21903239 -36.52727509 1.49296761 C-35.16893977 1.1583718 -33.8115716 0.81981866 -32.4553299 0.47683525 C-30.59742567 0.00753243 -28.73552941 -0.44587856 -26.87353516 -0.89868164 C-25.84053284 -1.15510941 -24.80753052 -1.41153717 -23.7432251 -1.67573547 C-15.44893251 -2.98526167 -8.0828296 -2.03148808 0 0 Z "
        fill="#070604" transform="translate(550.31005859375,15.2177734375)" />
    <path
        d="M0 0 C1.32 0 2.64 0 4 0 C5.39355469 1.43920898 5.39355469 1.43920898 6.671875 3.49609375 C7.16316895 4.26977295 7.65446289 5.04345215 8.16064453 5.84057617 C8.68513184 6.69756104 9.20961914 7.5545459 9.75 8.4375 C10.58893799 9.76841675 10.58893799 9.76841675 11.44482422 11.1262207 C12.6615733 13.05671367 13.87276041 14.99072058 15.07910156 16.92773438 C18.38192345 22.21023445 21.75996027 27.44451232 25.125 32.6875 C26.49251222 34.82661536 27.85970616 36.96593424 29.2265625 39.10546875 C32.3017137 43.91412356 35.39309543 48.71181622 38.5 53.5 C43.73607704 61.57020128 48.91607619 69.6759851 54.09765625 77.78125 C58.30492128 84.35959229 62.53131382 90.9248305 66.78173828 97.4753418 C70.84006777 103.73700038 74.85721209 110.02477542 78.875 116.3125 C83.72054197 123.89445499 88.58562434 131.4624726 93.5 139 C99.11569938 147.61319745 104.66280567 156.26926367 110.19921875 164.93359375 C113.94900875 170.80031722 117.7100492 176.65914439 121.5 182.5 C126.02950976 189.48119129 130.51758322 196.48849165 135 203.5 C141.30072808 213.3547014 147.63297442 223.18803733 154 233 C161.07327585 243.90033608 168.09735064 254.83115335 175.09643555 265.77929688 C178.88113415 271.6970098 182.67667714 277.6071721 186.5 283.5 C191.02947723 290.48121261 195.51758303 297.48849136 200 304.5 C204.58859271 311.67682313 209.18346091 318.84918994 213.8125 326 C214.45215698 326.99241699 214.45215698 326.99241699 215.10473633 328.00488281 C217.40882245 331.57346549 219.74510947 335.11681186 222.1171875 338.640625 C222.63047607 339.41148437 223.14376465 340.18234375 223.67260742 340.9765625 C224.65552038 342.45164477 225.64738197 343.92081799 226.6496582 345.3828125 C227.08882568 346.04539062 227.52799316 346.70796875 227.98046875 347.390625 C228.37129639 347.96844727 228.76212402 348.54626953 229.16479492 349.14160156 C230.28749011 351.6396886 230.36691319 353.28689101 230 356 C228.56640625 358.01708984 228.56640625 358.01708984 226.5625 359.9609375 C225.46615234 361.03988281 225.46615234 361.03988281 224.34765625 362.140625 C223.57292969 362.87796875 222.79820312 363.6153125 222 364.375 C220.88431641 365.46941406 220.88431641 365.46941406 219.74609375 366.5859375 C216.21975799 370.02028189 212.63191473 373.35335127 208.90625 376.5703125 C204.90667308 380.02836255 201.20005501 383.72656185 197.5 387.5 C193.20047464 391.84580205 188.8966892 396.06068278 184.21875 400 C180.84987939 403.03672844 177.69090341 406.27811694 174.5 409.5 C170.19812143 413.84364438 165.89692101 418.06048757 161.21875 422 C157.84987939 425.03672844 154.69090341 428.27811694 151.5 431.5 C147.19812143 435.84364438 142.89692101 440.06048757 138.21875 444 C134.84987939 447.03672844 131.69090341 450.27811694 128.5 453.5 C124.19812143 457.84364438 119.89692101 462.06048757 115.21875 466 C111.84987939 469.03672844 108.69090341 472.27811694 105.5 475.5 C101.19812143 479.84364438 96.89692101 484.06048757 92.21875 488 C88.84987939 491.03672844 85.69090341 494.27811694 82.5 497.5 C78.19812143 501.84364438 73.89692101 506.06048757 69.21875 510 C65.84987939 513.03672844 62.69090341 516.27811694 59.5 519.5 C55.19812143 523.84364438 50.89692101 528.06048757 46.21875 532 C42.1458863 535.67131375 38.35015051 539.63184754 34.49267578 543.52685547 C30.81728886 547.2242892 27.1008738 550.76602848 23.09765625 554.109375 C21.25310142 555.7718788 19.5338894 557.4817684 17.80859375 559.265625 C17.23318848 559.85778809 16.6577832 560.44995117 16.06494141 561.06005859 C14.91884881 562.24702604 13.78137811 563.44239516 12.65380859 564.64697266 C9.60483601 567.79996137 7.60481692 569.74370221 3 570 C-3.60478384 559.67684171 -9.88957152 549.17347434 -16.125 538.625 C-21.99603895 528.69380058 -27.92185217 518.80629396 -34 509 C-39.92373237 499.43862681 -45.71159655 489.80567712 -51.4375 480.125 C-57.44661324 469.96700386 -63.49050186 459.8328441 -69.625 449.75 C-69.97265411 449.17844177 -70.32030823 448.60688354 -70.67849731 448.01800537 C-73.1166783 444.01058878 -75.55793709 440.00505184 -78 436 C-80.79385607 431.41799748 -83.58623693 426.83510446 -86.375 422.25 C-86.72258362 421.67858276 -87.07016724 421.10716553 -87.42828369 420.51843262 C-93.59331403 410.37645734 -99.65852309 400.17682551 -105.70544434 389.96411133 C-111.29406711 380.52789094 -116.92555415 371.11972119 -122.625 361.75 C-122.97274475 361.1782605 -123.3204895 360.606521 -123.67877197 360.01745605 C-126.11685807 356.01022062 -128.55804334 352.00487759 -131 348 C-133.79385608 343.41799746 -136.58621509 338.83509119 -139.375 334.25 C-139.89487991 333.39536667 -139.89487991 333.39536667 -140.42526245 332.52346802 C-146.65647261 322.27307765 -152.78661737 311.96415376 -158.89852905 301.64230347 C-164.11389272 292.83613788 -169.36237183 284.05290947 -174.6875 275.3125 C-175.53199707 273.92188354 -175.53199707 273.92188354 -176.39355469 272.50317383 C-178.77299162 268.59629883 -181.1707006 264.7091843 -183.671875 260.87890625 C-184.06157471 260.27457764 -184.45127441 259.67024902 -184.8527832 259.04760742 C-185.83605453 257.53142649 -186.83696729 256.02672255 -187.83984375 254.5234375 C-189 252 -189 252 -189.015625 249.61328125 C-187.55361529 245.85141781 -185.2874511 242.97574184 -182.8125 239.8125 C-182.28293701 239.12124023 -181.75337402 238.42998047 -181.20776367 237.71777344 C-179.48172631 235.47068242 -177.74225838 233.23453215 -176 231 C-174.8019734 229.45711661 -173.60405722 227.91414747 -172.40625 226.37109375 C-170.60584835 224.05451012 -168.80399536 221.73910389 -166.9987793 219.42626953 C-163.11489574 214.44902155 -159.29577172 209.42968807 -155.5234375 204.3671875 C-146.76715425 192.64565829 -137.81899409 181.06504663 -128.92797852 169.44555664 C-121.93764773 160.30797418 -114.97030581 151.15286011 -108 142 C-99.98647072 131.47726046 -91.971075 120.95604877 -83.93286133 110.45214844 C-79.61426113 104.80724899 -75.30616228 99.15439146 -71 93.5 C-66.17304938 87.16176503 -61.34175095 80.82693674 -56.5 74.5 C-48.98453278 64.67845196 -41.49274515 54.83888657 -34 45 C-31.27102358 41.41652172 -28.54183855 37.83320247 -25.8125 34.25 C-24.8232251 32.9508667 -24.8232251 32.9508667 -23.81396484 31.62548828 C-20.64233528 27.46188932 -17.4667443 23.30144098 -14.28125 19.1484375 C-13.69496826 18.38370117 -13.10868652 17.61896484 -12.50463867 16.83105469 C-11.41988827 15.41685693 -10.33419815 14.00337919 -9.24731445 12.59082031 C-8.759646 11.95499023 -8.27197754 11.31916016 -7.76953125 10.6640625 C-7.30369629 10.05981445 -6.83786133 9.45556641 -6.35791016 8.83300781 C-5.42432323 7.57278296 -4.52968962 6.28305713 -3.66943359 4.97167969 C-2.38671875 3.0234375 -2.38671875 3.0234375 0 0 Z "
        fill="#F0ED00" transform="translate(298,178)" />
    <path
        d="M0 0 C2.14865112 1.66090393 2.14865112 1.66090393 4.31201172 3.84204102 C5.1299118 4.65701553 5.94781189 5.47199005 6.79049683 6.31166077 C7.66142975 7.20010178 8.53236267 8.08854279 9.4296875 9.00390625 C10.33824493 9.9157518 11.24680237 10.82759735 12.18289185 11.76707458 C14.10705037 13.69886838 16.02457545 15.63692384 17.93701172 17.58032227 C20.36817533 20.05080906 22.80975448 22.51063775 25.25578117 24.9664011 C27.60891736 27.32960713 29.9569404 29.69784528 32.3046875 32.06640625 C33.17157196 32.94067764 34.03845642 33.81494904 34.93161011 34.7157135 C39.22895303 39.07997842 43.37647918 43.51220362 47.37335205 48.15245056 C49.9881803 51.12237682 52.77977838 53.90359246 55.58984375 56.6875 C56.47392662 57.56946045 56.47392662 57.56946045 57.37586975 58.46923828 C59.22737618 60.31522361 61.08235817 62.15766892 62.9375 64 C64.20661373 65.2640885 65.47549589 66.52840956 66.74414062 67.79296875 C69.8267632 70.86466724 72.91250428 73.93320008 76 77 C71.89818846 84.1061459 67.72663188 91.14601198 63.3125 98.0625 C62.26686973 99.70959901 61.22129851 101.3567355 60.17578125 103.00390625 C59.3861499 104.24551514 59.3861499 104.24551514 58.58056641 105.51220703 C56.04523574 109.50278773 53.52305368 113.50165044 51 117.5 C48.03716403 122.19267858 45.07341184 126.88476822 42.10546875 131.57421875 C36.543283 140.36606074 31.00949537 149.17503136 25.5 158 C18.48598054 169.23487679 11.42345138 180.43833087 4.3359375 191.62695312 C3.20561209 193.41147373 2.0756412 195.19621894 0.94604492 196.98120117 C-0.12066118 198.66679131 -1.18817115 200.35187307 -2.2565918 202.03637695 C-2.73265869 202.78878662 -3.20872559 203.54119629 -3.69921875 204.31640625 C-4.12033936 204.98099854 -4.54145996 205.64559082 -4.9753418 206.33032227 C-6.04891162 208.02560183 -6.04891162 208.02560183 -7 210 C-9.47009277 210.99255371 -9.47009277 210.99255371 -12.81835938 212.05273438 C-13.43032826 212.24879933 -14.04229715 212.44486429 -14.67281055 212.64687061 C-16.72754714 213.30312244 -18.78557194 213.94838008 -20.84375 214.59375 C-22.30206223 215.05706035 -23.7601625 215.52103828 -25.21806335 215.98564148 C-29.15735861 217.23890368 -33.09958073 218.48271452 -37.04241562 219.72478867 C-41.13585087 221.01600675 -45.22658753 222.31571743 -49.31762695 223.61450195 C-56.80440943 225.98988034 -64.29358989 228.35759283 -71.78394985 230.72166348 C-79.19116108 233.05964976 -86.59623268 235.40436215 -94.00104904 237.74991989 C-107.15663587 241.91642354 -120.31383829 246.07781628 -133.480896 250.20794678 C-135.75899636 250.92422397 -138.03527379 251.64596349 -140.31103516 252.36962891 C-141.48327637 252.73878418 -142.65551758 253.10793945 -143.86328125 253.48828125 C-144.81114502 253.78903564 -145.75900879 254.08979004 -146.7355957 254.3996582 C-149 255 -149 255 -152 255 C-152 188.01 -152 121.02 -152 52 C-124.47414576 41.67780466 -124.47414576 41.67780466 -113.30078125 37.7578125 C-112.02131346 37.30676311 -110.74193321 36.85546537 -109.46263123 36.40394592 C-106.78545122 35.45943481 -104.10783199 34.51618602 -101.42980957 33.57406616 C-94.3273149 31.07512803 -87.22824755 28.56647302 -80.12890625 26.05859375 C-79.41301708 25.805777 -78.69712791 25.55296024 -77.95954514 25.29248238 C-62.87507079 19.9648458 -47.80880794 14.58725189 -32.75 9.1875 C-31.61672272 8.78154602 -30.48344543 8.37559204 -29.31582642 7.95733643 C-26.14243264 6.82035269 -22.96954104 5.68198136 -19.796875 4.54296875 C-18.86975204 4.21071793 -17.94262909 3.8784671 -16.9874115 3.53614807 C-16.13401688 3.22926559 -15.28062225 2.92238312 -14.40136719 2.60620117 C-13.23172424 2.18846939 -13.23172424 2.18846939 -12.03845215 1.76229858 C-10.39832609 1.14895783 -8.79187059 0.44597553 -7.20019531 -0.28393555 C-4.34113384 -1.21443125 -2.87496981 -0.8573407 0 0 Z "
        fill="#2F54CE" transform="translate(686,394)" />
    <path
        d="M0 0 C1.28247313 30.7797853 1.61069568 61.56760116 1.80750179 92.37090588 C1.86869796 101.72762775 1.95687658 111.08253999 2.11108398 120.43823242 C2.24711725 128.69327673 2.33206479 136.94706742 2.35790926 145.20321828 C2.37308168 149.54056669 2.4110363 153.87453982 2.51078606 158.21083641 C2.98196728 179.57879828 1.46237018 194.26591053 -11.18629265 212.32398415 C-14.26793815 216.8707663 -16.85389565 221.69165568 -19.5 226.5 C-20.57071866 228.39707558 -21.64337962 230.29305741 -22.71875 232.1875 C-26.16338862 238.28186063 -29.58299108 244.3901165 -33 250.5 C-38.00228539 259.4444838 -43.02465606 268.37715768 -48.08349609 277.28979492 C-50.69649828 281.89911799 -53.2921627 286.51666927 -55.84735107 291.15835571 C-56.81094202 292.90875937 -57.77752711 294.65751367 -58.74414062 296.40625 C-59.97537934 298.63603227 -61.20087326 300.86899871 -62.41992188 303.10546875 C-62.97486328 304.10835938 -63.52980469 305.11125 -64.1015625 306.14453125 C-64.83366943 307.48028198 -64.83366943 307.48028198 -65.58056641 308.84301758 C-67 311 -67 311 -70 313 C-74.14758308 308.87732158 -78.2917284 304.75122773 -82.43286133 300.62207031 C-83.83917075 299.22075867 -85.24638022 297.82034964 -86.65454102 296.42089844 C-88.69009656 294.39760962 -90.72228531 292.37098872 -92.75390625 290.34375 C-93.37399063 289.7288269 -93.99407501 289.11390381 -94.63294983 288.48034668 C-97.67580378 285.43787572 -100.58765191 282.34988401 -103.37695312 279.07250977 C-106.59818285 275.34510807 -110.08857222 272.04039894 -113.73924255 268.7374115 C-117.27022043 265.54059475 -120.72654251 262.26623953 -124.19067383 258.99731445 C-126.0153208 257.29689462 -127.85917328 255.61684308 -129.72192383 253.95825195 C-132.44337011 251.52555713 -135.08031304 249.02228394 -137.71484375 246.49609375 C-138.54596176 245.78682236 -139.37707977 245.07755096 -140.23338318 244.3467865 C-144.95284396 239.65822943 -146.44230446 235.54509219 -146.62234783 229.05511475 C-146.58228473 224.94328661 -146.40306606 220.84607204 -146.18515968 216.74007225 C-145.98198628 212.63613782 -145.85706105 208.53449403 -145.74845886 204.42720032 C-145.49566538 195.12898362 -145.17995731 185.83349977 -144.85428858 176.53758311 C-144.75692397 173.75192238 -144.66067218 170.96622534 -144.564785 168.18051338 C-144.2294763 158.44107593 -143.88991545 148.70179736 -143.54638672 138.96264648 C-143.2271833 129.90973832 -142.91774946 120.85653032 -142.6126529 111.80313677 C-142.34891256 103.99010361 -142.07830756 96.17732763 -141.80237472 88.36471564 C-141.63826899 83.71483629 -141.47694784 79.06490176 -141.32263565 74.4146862 C-141.17784766 70.05820119 -141.02452249 65.7020995 -140.86462402 61.34614372 C-140.80751113 59.75070902 -140.75344104 58.15516199 -140.70266342 56.55951309 C-140.63281359 54.37949148 -140.5519193 52.20014505 -140.46829224 50.02061462 C-140.42588976 48.80237975 -140.38348728 47.58414488 -140.33979988 46.3289938 C-139.98430802 42.84626687 -139.52367362 40.15994362 -138 37 C-135.70079136 35.702281 -135.70079136 35.702281 -132.76844788 34.91850281 C-131.65936569 34.60879044 -130.55028351 34.29907806 -129.40759277 33.97998047 C-127.57400208 33.50975464 -127.57400208 33.50975464 -125.70336914 33.0300293 C-124.40687113 32.67827538 -123.11097919 32.32428107 -121.81565857 31.96821594 C-118.29672209 31.00771668 -114.77012929 30.07876047 -111.24136662 29.15512061 C-107.5516055 28.18359535 -103.86969885 27.1831785 -100.18687439 26.18574524 C-93.20827734 24.30039197 -86.2230662 22.44088375 -79.23508495 20.59065419 C-71.2925281 18.48642259 -63.35745363 16.3546528 -55.42302525 14.22001016 C-45.75605347 11.61933779 -36.08815972 9.02227968 -26.41407776 6.44816589 C-25.7302543 6.26614612 -25.04643083 6.08412635 -24.34188545 5.89659083 C-21.13758855 5.04384482 -17.93299357 4.19226094 -14.72793579 3.34237671 C-13.61603378 3.04676346 -12.50413177 2.75115021 -11.35853577 2.44657898 C-10.39048539 2.1898173 -9.42243502 1.93305563 -8.42504978 1.6685133 C-2.37247338 0 -2.37247338 0 0 0 Z "
        fill="#26B042" transform="translate(832,154)" />
    <path
        d="M0 0 C0 99.99 0 199.98 0 303 C-4.57690752 302.0846185 -8.65963478 300.73335354 -12.98828125 299.0703125 C-13.78219772 298.76854095 -14.5761142 298.46676941 -15.39408875 298.15585327 C-18.03526905 297.14998732 -20.67395544 296.13775802 -23.3125 295.125 C-25.18815074 294.40820233 -27.06380179 293.69140547 -28.93945312 292.97460938 C-44.02254196 287.1970952 -59.0398988 281.25747765 -74.04769897 275.28768921 C-88.03253806 269.72647564 -102.05018459 264.26684926 -116.125 258.9375 C-135.59722298 251.56325062 -154.99006306 243.99493433 -174.37091064 236.38418579 C-181.2265361 233.69292786 -188.08665778 231.0133635 -194.94921875 228.33984375 C-195.908246 227.96614655 -196.86727325 227.59244934 -197.85536194 227.20742798 C-201.55673027 225.76531174 -205.25816964 224.32338119 -208.9602356 222.88305664 C-211.45818262 221.91113123 -213.95569207 220.93808924 -216.453125 219.96484375 C-217.19346481 219.67721664 -217.93380463 219.38958954 -218.69657898 219.09324646 C-223.77286647 217.11356677 -223.77286647 217.11356677 -226 216 C-225.41729578 212.60360053 -224.34349662 210.97550484 -221.90234375 208.57421875 C-220.95391602 207.63255859 -220.95391602 207.63255859 -219.98632812 206.671875 C-218.9721582 205.68960938 -218.9721582 205.68960938 -217.9375 204.6875 C-217.24720703 204.00816406 -216.55691406 203.32882812 -215.84570312 202.62890625 C-212.08025505 198.94523845 -208.24882301 195.39374569 -204.21875 192 C-200.84987939 188.96327156 -197.69090341 185.72188306 -194.5 182.5 C-190.19812143 178.15635562 -185.89692101 173.93951243 -181.21875 170 C-177.84987939 166.96327156 -174.69090341 163.72188306 -171.5 160.5 C-167.19812143 156.15635562 -162.89692101 151.93951243 -158.21875 148 C-154.84987939 144.96327156 -151.69090341 141.72188306 -148.5 138.5 C-144.19812143 134.15635562 -139.89692101 129.93951243 -135.21875 126 C-131.84987939 122.96327156 -128.69090341 119.72188306 -125.5 116.5 C-121.19812143 112.15635562 -116.89692101 107.93951243 -112.21875 104 C-108.84987939 100.96327156 -105.69090341 97.72188306 -102.5 94.5 C-98.19812143 90.15635562 -93.89692101 85.93951243 -89.21875 82 C-85.84987939 78.96327156 -82.69090341 75.72188306 -79.5 72.5 C-75.19812143 68.15635562 -70.89692101 63.93951243 -66.21875 60 C-62.84987939 56.96327156 -59.69090341 53.72188306 -56.5 50.5 C-52.19812143 46.15635562 -47.89692101 41.93951243 -43.21875 38 C-39.1451192 34.32799477 -35.34870011 30.36666828 -31.49047852 26.47094727 C-27.8385433 22.79712506 -24.14692301 19.2811245 -20.16796875 15.9609375 C-18.21289564 14.19256507 -16.38515102 12.3683023 -14.55078125 10.4765625 C-13.92631104 9.83533447 -13.30184082 9.19410645 -12.65844727 8.53344727 C-11.40391622 7.23783141 -10.15799348 5.93381421 -8.92163086 4.62084961 C-8.34421143 4.0253833 -7.76679199 3.42991699 -7.171875 2.81640625 C-6.6572168 2.27443604 -6.14255859 1.73246582 -5.61230469 1.17407227 C-4 0 -4 0 0 0 Z "
        fill="#EFEC00" transform="translate(531,536)" />
    <path
        d="M0 0 C6.08605077 0.62304468 11.77757105 1.84690728 17.6784668 3.43896484 C19.09307001 3.81383844 19.09307001 3.81383844 20.53625107 4.19628525 C23.67526108 5.02950088 26.81221355 5.87020814 29.94921875 6.7109375 C32.1971514 7.30927616 34.44520641 7.90715527 36.69337463 8.50460815 C42.76459377 10.11949065 48.83404546 11.74092403 54.90315247 13.36372375 C61.22911578 15.05418595 67.55654211 16.73915475 73.88378906 18.42480469 C84.34906122 21.2136956 94.8132842 24.0064927 105.27685547 26.80175781 C118.02854929 30.208233 130.78254098 33.6060239 143.53742981 37.0005188 C152.88734863 39.4889042 162.23631493 41.98085949 171.58511353 44.47344971 C176.02345085 45.65676101 180.46209037 46.83892903 184.90097046 48.02020264 C190.10352797 49.40490986 195.30524879 50.79271681 200.50633049 52.1829567 C202.40610185 52.69023627 204.30615665 53.19645572 206.20651436 53.70153427 C208.7898229 54.3883118 211.37207985 55.07891063 213.95410156 55.77050781 C214.70327693 55.9687232 215.4524523 56.16693859 216.22432995 56.37116051 C219.96365968 57.37732856 223.38612699 58.5544508 227 60 C227 155.7 227 251.4 227 350 C225.68 350 224.36 350 223 350 C221.25170898 347.97485352 221.25170898 347.97485352 219.49609375 345.12890625 C218.84342529 344.08798828 218.19075684 343.04707031 217.51831055 341.97460938 C216.83164307 340.84861328 216.14497559 339.72261719 215.4375 338.5625 C214.7187041 337.40726826 213.99839792 336.2529749 213.27661133 335.09960938 C211.83790823 332.79809699 210.40564185 330.49278954 208.97851562 328.18408203 C206.43343054 324.0882035 203.8212639 320.0391839 201.1875 316 C200.30962764 314.64600718 199.4320198 313.29184282 198.5546875 311.9375 C197.70321193 310.6249436 196.85165011 309.31244315 196 308 C188.92672415 297.09966392 181.90264936 286.16884665 174.90356445 275.22070312 C171.11886585 269.3029902 167.32332286 263.3928279 163.5 257.5 C158.26396056 249.42977407 153.08392403 241.32401525 147.90234375 233.21875 C143.69507872 226.64040771 139.46868618 220.0751695 135.21826172 213.5246582 C131.15993223 207.26299962 127.14278791 200.97522458 123.125 194.6875 C118.27945803 187.10554501 113.41437566 179.5375274 108.5 172 C102.88430062 163.38680255 97.33719433 154.73073633 91.80078125 146.06640625 C88.05099125 140.19968278 84.2899508 134.34085561 80.5 128.5 C75.97049024 121.51880871 71.48241678 114.51150835 67 107.5 C60.69927192 97.6452986 54.36702558 87.81196267 48 78 C40.93103818 67.10631209 33.91027642 56.18277283 26.91674805 45.24047852 C23.4503386 39.81933622 19.97486824 34.40464381 16.4699707 29.00830078 C14.30617936 25.67679267 12.15181746 22.33925084 10 19 C9.29109619 17.90244385 9.29109619 17.90244385 8.56787109 16.78271484 C7.14184686 14.5682111 5.72585638 12.34760472 4.3125 10.125 C3.87760254 9.45202881 3.44270508 8.77905762 2.99462891 8.08569336 C0 3.34389139 0 3.34389139 0 0 Z "
        fill="#EFEC00" transform="translate(304,176)" />
    <path
        d="M0 0 C3.08282902 1.34324449 4.86935039 2.7159497 6.953125 5.34375 C7.48550781 6.00761719 8.01789063 6.67148437 8.56640625 7.35546875 C9.39978516 8.41701172 9.39978516 8.41701172 10.25 9.5 C10.83136719 10.22832031 11.41273438 10.95664062 12.01171875 11.70703125 C13.68073747 13.79980974 15.3409869 15.89928787 17 18 C18.33216424 19.66760127 19.66527592 21.33444688 21 23 C21.6084375 23.763125 22.216875 24.52625 22.84375 25.3125 C25.71276857 28.88837821 28.60655122 32.44387927 31.5 36 C35.63051048 41.0765004 39.74257186 46.16610416 43.8203125 51.28515625 C45.63930769 53.55075062 47.46876897 55.80673298 49.3046875 58.05859375 C49.8925 58.77982422 50.4803125 59.50105469 51.0859375 60.24414062 C52.25924597 61.68259632 53.4336866 63.12012946 54.609375 64.55664062 C55.14820313 65.21728516 55.68703125 65.87792969 56.2421875 66.55859375 C56.7254248 67.14954834 57.20866211 67.74050293 57.70654297 68.34936523 C60.20934664 71.54329797 61.2513413 73.35205248 61.22483826 77.36550903 C61.22179861 78.71432569 61.22179861 78.71432569 61.21869755 80.09039116 C61.20509913 81.08166071 61.19150072 82.07293026 61.17749023 83.09423828 C61.16600905 84.67817729 61.16600905 84.67817729 61.15429592 86.29411507 C61.02069546 100.25977913 60.62022932 114.22169534 60.2252152 128.18192816 C60.13688276 131.31863482 60.0507196 134.45539968 59.96453851 137.59216607 C59.76128443 144.98975057 59.55476489 152.38723856 59.34594727 159.78466797 C59.13157101 167.38065098 58.92227055 174.97676185 58.71548563 182.57295501 C58.53638464 189.146864 58.35445706 195.72069049 58.17022032 202.29445755 C58.06080149 206.19894965 57.95234705 210.10346175 57.84651375 214.00805283 C57.74717803 217.66751777 57.64427572 221.326866 57.53871346 224.98615646 C57.48283962 226.95202853 57.43048288 228.91799959 57.37826538 230.88397217 C57.17980088 237.62971126 56.79760551 244.29727984 56 251 C47.40940013 254.44568223 38.81796592 257.88927454 30.22557735 261.33049393 C26.2319542 262.92999395 22.23857848 264.53010472 18.24584961 266.13183594 C-0.59020111 273.68756205 -19.45591537 281.15331082 -38.39379883 288.45019531 C-43.63284469 290.46894496 -48.86325326 292.50757744 -54.08203125 294.578125 C-55.23638672 295.03574219 -56.39074219 295.49335937 -57.58007812 295.96484375 C-59.84893827 296.86690416 -62.11710806 297.77070196 -64.38476562 298.67578125 C-65.50173828 299.11792969 -66.61871094 299.56007813 -67.76953125 300.015625 C-68.73479736 300.40008789 -69.70006348 300.78455078 -70.69458008 301.18066406 C-73 302 -73 302 -75 302 C-76.04726215 298.85821355 -76.19808781 296.47078221 -76.31007385 293.16862488 C-76.35351929 291.9509996 -76.39696472 290.73337433 -76.44172668 289.47885132 C-76.48540965 288.12677288 -76.5290009 286.77469147 -76.57250977 285.42260742 C-76.62154301 283.99973781 -76.67096048 282.5768814 -76.72073364 281.15403748 C-76.85501712 277.28109432 -76.98362275 273.40798138 -77.1110394 269.53480697 C-77.24571796 265.46372822 -77.38490884 261.39280337 -77.52342224 257.32185364 C-77.75601187 250.46459139 -77.98491665 243.60721342 -78.21166992 236.74975586 C-78.47206093 228.87639604 -78.73820166 221.00324714 -79.00755268 213.13018912 C-79.26783402 205.51804772 -79.52384256 197.90576798 -79.77802849 190.29342079 C-79.8855134 187.07668657 -79.99442981 183.86000588 -80.10458565 180.64336205 C-80.44186867 170.76312814 -80.75052788 160.88288758 -81 151 C-81.0297504 149.84443415 -81.05950081 148.68886829 -81.09015274 147.49828529 C-81.16062315 144.42196 -81.20845346 141.34642494 -81.24487305 138.26953125 C-81.26484879 137.40821689 -81.28482454 136.54690252 -81.30540562 135.65948772 C-81.34042625 128.05160526 -78.8152384 122.86429965 -74.25 116.8125 C-72.85921363 114.78787126 -71.46859046 112.7631304 -70.078125 110.73828125 C-69.38396484 109.76713379 -68.68980469 108.79598633 -67.97460938 107.79541016 C-65.15038605 103.7972206 -62.57720754 99.65972679 -60 95.5 C-59.03257372 93.96791334 -58.06380012 92.4366767 -57.09375 90.90625 C-53.54245075 85.28335953 -50.02156971 79.64153955 -46.5 74 C-40.51428307 64.41208424 -34.49635394 54.84525433 -28.45166016 45.29443359 C-25.4709016 40.58317075 -22.49551389 35.86851334 -19.51904297 31.15454102 C-16.90893013 27.0212182 -14.29735794 22.88882749 -11.68359375 18.7578125 C-11.14025391 17.89865234 -10.59691406 17.03949219 -10.03710938 16.15429688 C-8.99851439 14.51207403 -7.95947752 12.87013053 -6.91992188 11.22851562 C-4.56926752 7.51067685 -2.2399927 3.7861156 0 0 Z "
        fill="#26B042" transform="translate(763,475)" />
    <path
        d="M0 0 C0.17581164 17.36938301 -0.34164528 34.69777283 -0.9767139 52.05271673 C-1.11664391 55.90126167 -1.25191262 59.74997078 -1.38771057 63.59866333 C-1.64554518 70.88748361 -1.90718412 78.17616168 -2.17037112 85.46479046 C-2.5529328 96.06388489 -2.92979966 106.66318207 -3.30657291 117.2624836 C-3.36323956 118.85639578 -3.41990783 120.4503079 -3.47657776 122.04421997 C-3.50435352 122.82565436 -3.53212928 123.60708874 -3.56074673 124.41220295 C-3.72165294 128.93550164 -3.88366571 133.45875881 -4.04673654 137.98197997 C-4.75567807 157.6530036 -5.40339742 177.32523633 -6 197 C-6.74665074 197.25441675 -7.49330149 197.5088335 -8.26257801 197.77095985 C-9.73867054 198.2740294 -9.73867054 198.2740294 -11.24458313 198.78726196 C-12.70487175 199.28490272 -12.70487175 199.28490272 -14.19466114 199.79259682 C-36.07271546 207.25911687 -57.81362442 215.11894208 -79.57676697 222.91207886 C-88.02236676 225.93595287 -96.47023174 228.95341473 -104.91975594 231.96630478 C-106.88171876 232.66591333 -108.84363178 233.36566135 -110.80552673 234.06546021 C-111.44369607 234.29308989 -112.08186541 234.52071957 -112.73937321 234.75524712 C-114.01381518 235.20983154 -115.28825659 235.66441756 -116.56269741 236.1190052 C-119.67126106 237.22775543 -122.77995712 238.3361323 -125.88882446 239.44403076 C-129.33635265 240.67274802 -132.78345629 241.9026493 -136.23046875 243.1328125 C-137.76246414 243.67829742 -137.76246414 243.67829742 -139.32540894 244.23480225 C-140.73863937 244.73950043 -140.73863937 244.73950043 -142.18041992 245.25439453 C-143.40265511 245.69019333 -143.40265511 245.69019333 -144.64958191 246.13479614 C-146.32073465 246.7499581 -147.97442646 247.41348544 -149.61372375 248.10910034 C-152 249 -152 249 -155 249 C-155 180.69 -155 112.38 -155 42 C-133.9390936 35.98259817 -112.89002005 29.99754401 -91.75 24.27734375 C-89.25124036 23.5992315 -86.75254391 22.9208864 -84.25390625 22.24232483 C-78.46149631 20.66973827 -72.66857717 19.0990395 -66.87534332 17.52949101 C-55.80622908 14.53048305 -44.73830273 11.52709682 -33.67053223 8.52313423 C-30.05501223 7.54226819 -26.43915299 6.56266093 -22.82324219 5.58323669 C-20.63215306 4.98903446 -18.44107188 4.39480294 -16.25 3.80053711 C-15.24978821 3.52996994 -14.24957642 3.25940277 -13.21905518 2.9806366 C-12.30629822 2.73287476 -11.39354126 2.48511292 -10.453125 2.22984314 C-9.26444824 1.90780112 -9.26444824 1.90780112 -8.05175781 1.5792532 C-2.45792578 0 -2.45792578 0 0 0 Z "
        fill="#FD7802" transform="translate(689,193)" />
    <path
        d="M0 0 C5.40885095 0.66145196 10.53383992 1.81698877 15.79321289 3.22705078 C16.65261789 3.45404317 17.5120229 3.68103556 18.39747047 3.9149065 C21.25689382 4.67121914 24.11476338 5.43323878 26.97265625 6.1953125 C29.01658101 6.73727056 31.06059458 7.27889375 33.10469055 7.82020569 C38.61501401 9.28057021 44.12397995 10.74599545 49.6326828 12.21245956 C54.2053053 13.42905587 58.77871232 14.64268742 63.3521347 15.8562727 C107.25209962 27.50573737 151.13071743 39.23556816 195 51 C196.12860107 54.76049805 196.12860107 54.76049805 194.97119141 56.91601562 C194.43671387 57.57279297 193.90223633 58.22957031 193.3515625 58.90625 C192.7630249 59.64367432 192.1744873 60.38109863 191.56811523 61.14086914 C190.92688721 61.91938232 190.28565918 62.69789551 189.625 63.5 C188.31563303 65.13349509 187.00703856 66.76760969 185.69921875 68.40234375 C185.05903809 69.19495605 184.41885742 69.98756836 183.75927734 70.80419922 C181.58818708 73.51399464 179.50530032 76.27310332 177.4375 79.0625 C173.97122243 83.71393864 170.46475607 88.33227967 166.9375 92.9375 C161.94872697 99.45105129 156.97038184 105.9724021 152 112.5 C147.17310235 118.83827522 142.34175085 125.17306338 137.5 131.5 C129.98453278 141.32154804 122.49274515 151.16111343 115 161 C106.98647072 171.52273954 98.971075 182.04395123 90.93286133 192.54785156 C86.61426113 198.19275101 82.30616228 203.84560854 78 209.5 C73.17304938 215.83823497 68.34175095 222.17306326 63.5 228.5 C55.98453278 238.32154804 48.49274515 248.16111343 41 258 C38.27102358 261.58347828 35.5418483 265.16680495 32.8125 268.75 C32.15515869 269.61318848 31.49781738 270.47637695 30.82055664 271.36572266 C27.61112488 275.57877471 24.39776883 279.78872783 21.17578125 283.9921875 C20.27605591 285.1663623 20.27605591 285.1663623 19.3581543 286.36425781 C18.23416336 287.83040179 17.10937442 289.29593448 15.98364258 290.76074219 C15.48630615 291.40946289 14.98896973 292.05818359 14.4765625 292.7265625 C14.04424316 293.28939941 13.61192383 293.85223633 13.16650391 294.43212891 C12.06060033 295.9185485 11.02768836 297.45846746 10 299 C9.01 299 8.02 299 7 299 C5.35399384 240.83051844 3.97273176 182.65544318 2.62903619 124.47829342 C2.40049248 114.58880097 2.1700147 104.69935428 1.93909872 94.80991697 C1.68600565 83.96878717 1.434221 73.12762735 1.18303299 62.28645325 C1.07740255 57.72849022 0.97131722 53.17053814 0.86484909 48.6125946 C0.74064616 43.29297953 0.61759152 37.9733391 0.49542046 32.65367699 C0.45067017 30.71306122 0.40552967 28.7724544 0.35996056 26.83185768 C-0.06250319 8.82187936 -0.06250319 8.82187936 0 0 Z "
        fill="#F0ED00" transform="translate(102,122)" />
    <path
        d="M0 0 C-0.43037833 15.97936377 -0.86834174 31.95851328 -1.3125 47.9375 C-1.3455637 49.12715111 -1.3786274 50.31680222 -1.41269302 51.54250336 C-2.35596875 85.40918073 -3.40279434 119.26947188 -4.6875 153.125 C-4.7208054 154.00284527 -4.75411079 154.88069054 -4.78842545 155.78513718 C-5.18393605 166.19042165 -5.58719534 176.59538655 -6 187 C-20.89160691 192.88540036 -35.90446919 198.42522198 -50.9375 203.9375 C-55.99394248 205.79173749 -61.05007969 207.64679855 -66.10546875 209.50390625 C-66.7345879 209.73494049 -67.36370705 209.96597473 -68.01189041 210.20401001 C-76.7314835 213.40780659 -85.43032157 216.6630211 -94.11328125 219.96484375 C-96.11004423 220.72095141 -98.10686852 221.47689718 -100.10375977 222.23266602 C-102.90569322 223.29330889 -105.7057171 224.35790735 -108.5007019 225.43673706 C-111.03291542 226.41407601 -113.57036111 227.37643403 -116.109375 228.3359375 C-116.84315872 228.62440048 -117.57694244 228.91286346 -118.33296204 229.21006775 C-122.24324272 230.67015304 -125.01632105 231.50905103 -129 230 C-130.9048337 228.13967176 -132.4885455 226.38508295 -134.125 224.3125 C-134.60090576 223.73016602 -135.07681152 223.14783203 -135.56713867 222.54785156 C-137.06056499 220.71062018 -138.53326243 218.85858778 -140 217 C-140.44649902 216.43522949 -140.89299805 215.87045898 -141.35302734 215.28857422 C-143.12724438 213.03868519 -144.89622643 210.78488469 -146.65600586 208.52368164 C-151.00723404 202.94350994 -155.50719401 197.49090923 -160.01660156 192.03833008 C-163.67280224 187.61614025 -167.29459355 183.17145587 -170.85546875 178.671875 C-172.65081414 176.43505123 -174.46884885 174.22237601 -176.30078125 172.015625 C-176.88915771 171.302854 -177.47753418 170.59008301 -178.08374023 169.85571289 C-179.25395882 168.43923323 -180.42905586 167.02676597 -181.60961914 165.61889648 C-182.41774048 164.63771851 -182.41774048 164.63771851 -183.2421875 163.63671875 C-183.96704346 162.76599731 -183.96704346 162.76599731 -184.70654297 161.87768555 C-186.3095649 159.55061087 -187.32228973 157.76356035 -188 155 C-186.96459961 152.13525391 -186.96459961 152.13525391 -185.15234375 148.9765625 C-184.82983139 148.40265778 -184.50731903 147.82875305 -184.17503357 147.23745728 C-183.11267883 145.35649707 -182.02543197 143.49126328 -180.9375 141.625 C-180.19117442 140.31444132 -179.44656172 139.0029058 -178.70361328 137.69042969 C-177.19761272 135.03634819 -175.6818929 132.38823768 -174.15673828 129.74511719 C-171.71857269 125.51853356 -169.32402279 121.26790788 -166.93188477 117.01513672 C-165.36412039 114.23067704 -163.78840781 111.4508458 -162.2109375 108.671875 C-158.78390147 102.62763792 -155.39076495 96.56463865 -152 90.5 C-146.97110828 81.50897221 -141.93215568 72.52379748 -136.84179688 63.56738281 C-134.01167167 58.5843533 -131.21845363 53.584753 -128.47265625 48.5546875 C-127.89136963 47.49975098 -127.31008301 46.44481445 -126.71118164 45.35791016 C-125.59716664 43.33459572 -124.49294861 41.30584602 -123.40014648 39.27099609 C-122.64519897 37.9070874 -122.64519897 37.9070874 -121.875 36.515625 C-121.22144531 35.31341309 -121.22144531 35.31341309 -120.5546875 34.08691406 C-116.61527812 28.79890034 -110.23867199 27.77536641 -104.18017578 26.21264648 C-103.1958255 25.95207458 -102.21147522 25.69150269 -101.19729614 25.42303467 C-97.94853473 24.56498313 -94.69698573 23.71803728 -91.4453125 22.87109375 C-89.18217722 22.27553109 -86.91923009 21.67925302 -84.65646362 21.08229065 C-78.69989103 19.51278109 -72.74092201 17.95256967 -66.78137207 16.39440918 C-60.72917479 14.81048856 -54.67907666 13.21859515 -48.62890625 11.62695312 C-41.82545616 9.8372108 -35.02183856 8.04815636 -28.21633911 6.26622009 C-27.17874451 5.99431351 -26.1411499 5.72240692 -25.07211304 5.44226074 C-23.14439253 4.93719486 -21.21651749 4.43271821 -19.28845215 3.92897034 C-18.42781158 3.70337433 -17.56717102 3.47777832 -16.68045044 3.24534607 C-15.87557316 3.0347801 -15.07069588 2.82421413 -14.24142838 2.60726738 C-12.21030638 2.05697804 -10.1951275 1.44865747 -8.18258667 0.83387756 C-5.27913841 0.07313776 -2.97812883 -0.18049266 0 0 Z "
        fill="#FD7801" transform="translate(954,314)" />
    <path
        d="M0 0 C1.56592 29.98732017 2.77753414 59.98305751 3.85986328 89.99145508 C4.08197074 96.14613717 4.30978054 102.30059413 4.53901863 108.45501423 C4.71831976 113.28955428 4.8942076 118.12421421 5.06914902 122.9589138 C5.15173564 125.22832556 5.23542523 127.49769751 5.32034683 129.76702309 C5.83311686 143.51877597 6.11088081 157.23851904 6 171 C-11.30861266 178.29962095 -28.72415499 185.28175797 -46.23269653 192.08633423 C-59.97101597 197.42833927 -73.67253316 202.85599199 -87.3515625 208.34765625 C-88.951643 208.98969996 -90.5517254 209.63173894 -92.15180969 210.27377319 C-99.33155887 213.15546201 -106.50994745 216.04045052 -113.6847229 218.9345026 C-116.68366736 220.14321368 -119.6839875 221.34848184 -122.68462753 222.55297661 C-124.09307036 223.1193058 -125.50088275 223.68720567 -126.90802383 224.25676155 C-128.84930971 225.04239665 -130.79266385 225.82268768 -132.73657227 226.60180664 C-133.83026627 227.04271133 -134.92396027 227.48361603 -136.05079651 227.93788147 C-139 229 -139 229 -144 230 C-144 168.95 -144 107.9 -144 45 C-76.26125304 23.18582725 -76.26125304 23.18582725 -54.375 16.3125 C-50.97705464 15.24364082 -47.57929459 14.17419645 -44.18170166 13.10421753 C-41.99519862 12.41578239 -39.80848068 11.72802929 -37.621521 11.04104614 C-32.04225569 9.2858096 -26.47064268 7.509483 -20.90722656 5.70458984 C-19.75566071 5.33198532 -18.60409485 4.9593808 -17.41763306 4.57548523 C-15.2137428 3.8611902 -13.01102328 3.14326983 -10.80966187 2.42121887 C-9.82784943 2.10327866 -8.84603699 1.78533844 -7.83447266 1.45776367 C-6.97069 1.17551437 -6.10690735 0.89326508 -5.21694946 0.60246277 C-3 0 -3 0 0 0 Z "
        fill="#FD7801" transform="translate(678,608)" />
    <path
        d="M0 0 C0.17955721 19.20952934 -0.34751056 38.37647396 -0.9767139 57.5721457 C-1.11612662 61.84560192 -1.25160299 66.11918345 -1.38771057 70.39274597 C-1.61619387 77.54748326 -1.8477865 84.70211465 -2.08129883 91.85668945 C-2.35027439 100.09905785 -2.61413934 108.34157821 -2.87535518 116.58419591 C-3.12865415 124.57305508 -3.38561983 132.56179238 -3.64421272 140.5504818 C-3.75344145 143.92694118 -3.86139817 147.30343756 -3.96829033 150.67997169 C-4.09419941 154.65215833 -4.22333892 158.62422764 -4.3548851 162.59623146 C-4.40234648 164.04450931 -4.44873588 165.49282279 -4.49391747 166.94117355 C-4.74587514 174.9938575 -5.14991033 182.98675043 -6 191 C-7.25343704 191.33159622 -8.50687408 191.66319244 -9.79829407 192.00483704 C-21.6414821 195.13800576 -33.48455329 198.27161581 -45.32751179 201.40565205 C-51.41530447 203.01666716 -57.50313745 204.62752966 -63.59106445 206.23803711 C-69.47206818 207.79381095 -75.35296352 209.34999386 -81.23378563 210.90645409 C-83.47148005 211.4986226 -85.70921273 212.09064657 -87.94698524 212.68251991 C-91.09407304 213.51492712 -94.24102134 214.34785978 -97.38793945 215.1809082 C-98.7592804 215.54343437 -98.7592804 215.54343437 -100.1583252 215.9132843 C-101.03169022 216.14459045 -101.90505524 216.37589661 -102.80488586 216.61421204 C-104.0753221 216.94968017 -104.0753221 216.94968017 -105.37142372 217.29192543 C-107.23912381 217.79503845 -109.1027665 218.31332147 -110.96339989 218.84197044 C-111.93685167 219.11726397 -112.91030346 219.39255749 -113.91325378 219.67619324 C-114.79202777 219.92919284 -115.67080175 220.18219244 -116.57620525 220.4428587 C-119 221 -119 221 -123 221 C-123.7433075 197.01444381 -124.14608109 173.05632904 -124.10139394 149.05959558 C-124.09495273 144.98519744 -124.09454081 140.91079771 -124.09336853 136.83639526 C-124.09031425 129.19134625 -124.08218448 121.5463123 -124.07201904 113.90126979 C-124.06066941 105.1677878 -124.055301 96.43430493 -124.05032361 87.70081735 C-124.03999364 69.8005365 -124.02251445 51.90026948 -124 34 C-117.77187412 31.54342504 -111.50310747 29.66262078 -105.04174805 27.92138672 C-103.97250595 27.62994781 -102.90326385 27.33850891 -101.80162048 27.03823853 C-98.28928021 26.08181686 -94.77551153 25.13075753 -91.26171875 24.1796875 C-88.81401504 23.51412118 -86.36641004 22.84819176 -83.91889954 22.18191528 C-78.14714095 20.61152098 -72.37450374 19.04440085 -66.6013878 17.47900689 C-56.8672193 14.83938244 -47.13492008 12.19287846 -37.40254211 9.54666138 C-32.57077948 8.23291529 -27.73854272 6.92093483 -22.90592957 5.61032104 C-20.70770988 5.01349957 -18.50949297 4.41666786 -16.3112793 3.81982422 C-15.30605225 3.54761047 -14.3008252 3.27539673 -13.26513672 2.99493408 C-12.34701706 2.74547028 -11.4288974 2.49600647 -10.48295593 2.23898315 C-9.68493403 2.02257109 -8.88691214 1.80615902 -8.06470776 1.58318901 C-2.45962506 0 -2.45962506 0 0 0 Z "
        fill="#2F54CE" transform="translate(960,119)" />
    <path
        d="M0 0 C0.99 0 1.98 0 3 0 C4.44399533 1.98359972 5.64772881 3.89042139 6.8515625 6.015625 C7.22265137 6.64952148 7.59374023 7.28341797 7.97607422 7.93652344 C8.78003033 9.31264052 9.57891746 10.69172851 10.37335205 12.07336426 C12.06620137 15.01725621 13.78293097 17.94696566 15.49813843 20.87786865 C16.3791731 22.38415176 17.25890013 23.89120042 18.13735962 25.39898682 C22.21818078 32.3998454 26.40504849 39.33237165 30.625 46.25 C31.32598836 47.40160628 32.02683431 48.55329926 32.72753906 49.70507812 C34.81652348 53.1378388 36.90800681 56.56907233 39 60 C41.79385608 64.58200254 44.58621509 69.16490881 47.375 73.75 C47.89487991 74.60463333 47.89487991 74.60463333 48.42526245 75.47653198 C54.65952555 85.73194447 60.7922469 96.04615865 66.90759277 106.37280273 C73.59177956 117.65779342 80.36734696 128.88327795 87.21044922 140.07275391 C90.54279474 145.52361649 93.86788352 150.97887863 97.1875 156.4375 C97.716353 157.3069223 97.716353 157.3069223 98.25588989 158.19390869 C104.5055897 168.47510599 110.64888217 178.81755863 116.77401733 189.17330933 C122.09795081 198.16988483 127.49440268 207.11304487 133 216 C138.92349921 225.56151869 144.71167577 235.19426965 150.4375 244.875 C156.56999904 255.24230202 162.74270732 265.58247365 169 275.875 C169.35100769 276.45303375 169.70201538 277.0310675 170.06365967 277.62661743 C173.51736714 283.31324734 176.98574742 288.98970556 180.50390625 294.63671875 C181.02662109 295.47928223 181.54933594 296.3218457 182.08789062 297.18994141 C183.0376654 298.71807241 183.99297816 300.24278229 184.95507812 301.76318359 C188 306.66608505 188 306.66608505 188 310 C182.20563477 309.42856169 177.35989894 307.802331 171.9765625 305.6328125 C171.09956192 305.28669418 170.22256134 304.94057587 169.31898499 304.58396912 C167.41758821 303.83258704 165.51755248 303.0777536 163.6187439 302.31985474 C159.50903681 300.67959988 155.39275205 299.05614669 151.27696228 297.43122864 C149.11438677 296.5771344 146.95217065 295.72212963 144.79029846 294.86625671 C133.44433579 290.37565955 122.06760151 285.96569286 110.6875 281.5625 C108.6506751 280.77362484 106.61389141 279.98464328 104.57714844 279.19555664 C100.46903891 277.60400346 96.36079179 276.01280633 92.25244141 274.421875 C85.86939648 271.9497744 79.48732647 269.47516356 73.10546875 267 C72.04428329 266.58845169 70.98309784 266.17690338 69.88975525 265.75288391 C64.66487719 263.72651587 59.44013605 261.69979567 54.21557617 259.67260742 C45.17092979 256.16380134 36.12464063 252.65953676 27.0703125 249.17578125 C25.58803641 248.60478039 24.10577664 248.03373717 22.62353516 247.46264648 C19.95504258 246.43451369 17.28530374 245.40971779 14.61474609 244.38696289 C13.47344238 243.94731201 12.33213867 243.50766113 11.15625 243.0546875 C10.17462891 242.67812012 9.19300781 242.30155273 8.18164062 241.91357422 C6 241 6 241 5 240 C4.86211464 238.41461726 4.79310839 236.82321864 4.75048828 235.23242188 C4.7200946 234.18233444 4.68970093 233.13224701 4.65838623 232.05033875 C4.6293219 230.86841446 4.60025757 229.68649017 4.5703125 228.46875 C4.53544739 227.20098221 4.50058228 225.93321442 4.46466064 224.62702942 C4.36603963 221.02217364 4.2741144 217.41717261 4.18352509 213.81210709 C4.12487995 211.49525728 4.06458898 209.17845629 4.00372314 206.86166382 C3.68518063 194.73241918 3.38386655 182.60277292 3.08560181 170.47301483 C2.9952563 166.80753994 2.90430728 163.14208038 2.81323242 159.47662354 C2.37692928 141.90575177 1.9496565 124.3346795 1.52984154 106.76340616 C1.41086738 101.79096079 1.2898394 96.81856803 1.16802979 91.84619141 C0.41929796 61.22944606 -0.26738117 30.62785841 0 0 Z "
        fill="#EFEC00" transform="translate(110,438)" />
    <path
        d="M0 0 C-0.69402856 32.97728875 -1.71455977 65.94296971 -2.79701328 98.90940166 C-2.98037437 104.50364708 -3.15951903 110.09802236 -3.33786297 115.69242966 C-3.5337836 121.83179203 -3.73378479 127.97101509 -3.93533325 134.11019516 C-4.0194417 136.68809048 -4.1023671 139.26602469 -4.18405151 141.84399796 C-4.29758621 145.41581738 -4.41578612 148.98745352 -4.53515625 152.55908203 C-4.5835112 154.12814804 -4.5835112 154.12814804 -4.63284302 155.72891235 C-4.82143193 161.21388094 -5.22101695 166.5664519 -6 172 C-21.8691236 178.67451929 -37.79923944 185.15105344 -53.86462402 191.33850098 C-64.03324848 195.25597237 -74.16438416 199.25725103 -84.26953125 203.3359375 C-85.40581467 203.79385681 -86.54209808 204.25177612 -87.71281433 204.72357178 C-92.27281819 206.56171287 -96.83263564 208.40013992 -101.3868103 210.25268555 C-104.56802707 211.54673983 -107.75245055 212.83260171 -110.9375 214.1171875 C-111.89626541 214.51022064 -112.85503082 214.90325378 -113.84284973 215.30819702 C-114.72873276 215.66394806 -115.61461578 216.0196991 -116.52734375 216.38623047 C-117.68351196 216.85583694 -117.68351196 216.85583694 -118.86303711 217.33493042 C-121 218 -121 218 -125 218 C-125.13303825 198.56944641 -124.78321097 179.17388013 -124.2252152 159.75309038 C-124.13669274 156.6555328 -124.05063145 153.5579086 -123.96453851 150.46028268 C-123.76170654 143.16304014 -123.55514342 135.86591035 -123.34594727 128.56884766 C-123.1308548 121.0641765 -122.92173035 113.55935543 -122.71548563 106.05443633 C-122.5368689 99.56120869 -122.35492031 93.0680805 -122.17022032 86.57502306 C-122.06049399 82.71713287 -121.95194663 78.85921938 -121.84651375 75.00120926 C-121.74777388 71.39422906 -121.64485695 67.78739179 -121.53871346 64.1806221 C-121.48237243 62.23172167 -121.43025477 60.28270057 -121.37826538 58.3336792 C-121.3432341 57.17101532 -121.30820282 56.00835144 -121.27210999 54.81045532 C-121.2435344 53.80297556 -121.21495882 52.7954958 -121.18551731 51.75748634 C-121.00259453 49.03856446 -120.79728009 46.609526 -120 44 C-117.39564176 42.6125236 -115.10605571 41.64548598 -112.33984375 40.703125 C-111.53747787 40.41109192 -110.735112 40.11905884 -109.90843201 39.81817627 C-108.17412239 39.18854487 -106.43664667 38.56758158 -104.69647217 37.9543457 C-102.03726199 37.01318791 -99.39089092 36.04272401 -96.74658203 35.06054688 C-92.03901413 33.31275016 -87.32459704 31.58443405 -82.60769653 29.86199951 C-67.89741617 24.49031844 -53.1991263 19.08807623 -38.53125 13.6015625 C-37.35545883 13.16199219 -36.17966766 12.72242188 -34.96824646 12.26953125 C-29.2519731 10.13172223 -23.53728741 7.98978098 -17.82446289 5.84277344 C-15.75931735 5.06955459 -13.69413386 4.29643712 -11.62890625 3.5234375 C-10.67918945 3.16496735 -9.72947266 2.80649719 -8.75097656 2.43716431 C-7.88641846 2.1142038 -7.02186035 1.79124329 -6.13110352 1.45849609 C-5.37732925 1.17525482 -4.62355499 0.89201355 -3.84693909 0.60018921 C-2 0 -2 0 0 0 Z "
        fill="#2F54CE" transform="translate(948,505)" />
    <path
        d="M0 0 C1.75456423 0.47168306 3.50931432 0.94267518 5.26423645 1.4130249 C9.95167197 2.67147484 14.63644076 3.93958502 19.32066345 5.20993423 C24.16914722 6.52340464 29.01975339 7.82899091 33.87011719 9.13549805 C41.65475399 11.23343671 49.43789142 13.33685715 57.22021484 15.44335938 C66.42718701 17.93497068 75.63935892 20.4066722 84.85417366 22.86909676 C88.99929897 23.97761953 93.14332559 25.09023819 97.2871809 26.20349789 C100.46615929 27.05741036 103.64576385 27.90884741 106.8263855 28.75662231 C110.28836154 29.68030207 113.7479617 30.61237975 117.20703125 31.546875 C118.21425735 31.81352966 119.22148346 32.08018433 120.25923157 32.35491943 C121.61929573 32.725112 121.61929573 32.725112 123.00683594 33.1027832 C124.18327667 33.41841972 124.18327667 33.41841972 125.38348389 33.74043274 C127.28515625 34.43359375 127.28515625 34.43359375 129.28515625 36.43359375 C111.8234254 41.60575401 94.29297943 46.49138786 76.71875 51.265625 C74.05684851 51.9902469 71.39513231 52.71554836 68.7334137 53.44084167 C62.50979892 55.13633299 56.285619 56.82973902 50.06119829 58.52226895 C40.90782586 61.01132933 31.7552926 63.50347223 22.60280704 65.99579144 C21.2451382 66.36549581 19.88746933 66.73520006 18.52980042 67.10490417 C17.53528345 67.37572729 17.53528345 67.37572729 16.52067524 67.65202159 C11.98434341 68.88724694 7.44771801 70.12138919 2.91099548 71.35517883 C0.54279505 71.99955978 -1.82540465 72.64394338 -4.19360352 73.28833008 C-5.26217087 73.57871658 -6.33073822 73.86910309 -7.4316864 74.16828918 C-8.42473785 74.43858948 -9.41778931 74.70888977 -10.44093323 74.98738098 C-11.36433408 75.23391293 -12.28773493 75.48044487 -13.23911762 75.73444748 C-15.31312082 76.320147 -17.35396217 77.0215894 -19.38250732 77.74928284 C-23.89926915 78.67682106 -27.17634625 77.7645607 -31.5534668 76.52783203 C-32.41504898 76.2999402 -33.27663116 76.07204836 -34.1643219 75.83725071 C-37.0232655 75.07647418 -39.87456534 74.29028756 -42.7265625 73.50390625 C-44.75199993 72.95957796 -46.77787378 72.41687127 -48.80415344 71.87568665 C-54.22369273 70.42358826 -59.63710688 68.94978588 -65.04962158 67.47175217 C-70.62662852 65.95278025 -76.20899691 64.45379759 -81.79101562 62.95336914 C-90.65536745 60.56854341 -99.51686131 58.17339719 -108.37646484 55.77099609 C-119.07061002 52.87231982 -129.7738168 50.00924769 -140.484375 47.171875 C-141.92779347 46.78921679 -143.37120887 46.40654698 -144.81462097 46.02386475 C-147.50855834 45.30982216 -150.20256853 44.59605522 -152.89663696 43.88250732 C-158.87873271 42.29789623 -164.86021331 40.71107794 -170.83984375 39.1171875 C-171.83083572 38.85488846 -172.8218277 38.59258942 -173.84284973 38.32234192 C-175.17554146 37.96640205 -175.17554146 37.96640205 -176.53515625 37.60327148 C-177.30102051 37.39967514 -178.06688477 37.1960788 -178.85595703 36.98631287 C-180.71484375 36.43359375 -180.71484375 36.43359375 -182.71484375 35.43359375 C-182.71484375 34.77359375 -182.71484375 34.11359375 -182.71484375 33.43359375 C-178.52224318 32.36676365 -174.3295193 31.30041883 -170.13671875 30.234375 C-169.1380544 29.98045486 -169.1380544 29.98045486 -168.11921501 29.72140503 C-159.74524355 27.5925779 -151.37023165 25.46792026 -142.9934082 23.3503418 C-142.18927773 23.14704412 -141.38514727 22.94374643 -140.55664921 22.73428822 C-137.20370803 21.88664255 -133.85076008 21.03902394 -130.49772072 20.19176674 C-119.44963911 17.39967589 -108.40618409 14.59024412 -97.36780357 11.76003742 C-89.69110979 9.79237775 -82.01144162 7.83661738 -74.32972145 5.88867474 C-69.65914777 4.70371234 -64.99027751 3.51276751 -60.3248291 2.30776978 C-55.90405088 1.16611908 -51.47953659 0.04027223 -47.0518055 -1.07409668 C-45.42196791 -1.4872407 -43.79355739 -1.90606406 -42.16677666 -2.33108521 C-26.53458254 -6.40890953 -15.37291745 -4.18708414 0 0 Z "
        fill="#2E54CE" transform="translate(552.71484375,154.56640625)" />
    <path
        d="M0 0 C1.51706559 0.40879863 3.03440687 0.81657534 4.55200195 1.22340393 C8.61367235 2.31515156 12.67153088 3.42046871 16.72874832 4.52863312 C20.93877794 5.67625754 25.15198717 6.81207992 29.36499023 7.94873047 C34.48738039 9.33150969 39.60940928 10.71557306 44.72987366 12.10546875 C54.80734451 14.84047049 64.89181957 17.54644022 74.9880085 20.21152306 C76.99554849 20.74160461 79.00282233 21.272681 81.00999451 21.80415344 C88.44300299 23.77277328 88.44300299 23.77277328 95.87869263 25.73123169 C99.21248554 26.60755073 102.543962 27.49218298 105.875 28.37890625 C106.85154541 28.63321915 107.82809082 28.88753204 108.83422852 29.14955139 C109.71594727 29.38588791 110.59766602 29.62222443 111.50610352 29.86572266 C112.27028091 30.06743073 113.03445831 30.26913879 113.8217926 30.47695923 C115.68359375 31.15234375 115.68359375 31.15234375 117.68359375 33.15234375 C101.08037915 37.91758521 84.3293258 42.10975409 67.58203125 46.33203125 C66.82642426 46.52258166 66.07081727 46.71313207 65.2923131 46.90945673 C58.14841239 48.71077223 51.00403551 50.51018809 43.85852623 52.30511284 C34.78177722 54.58529739 25.70754726 56.8750089 16.63639581 59.17736423 C10.21635154 60.80600122 3.79363532 62.42380177 -2.6311506 64.03363049 C-6.45369585 64.99173708 -10.27491705 65.9545122 -14.09331131 66.92904282 C-17.67405962 67.84268767 -21.25793738 68.74282891 -24.84462357 69.63286781 C-26.77761434 70.11615519 -28.70709366 70.61342069 -30.63641357 71.11116028 C-39.87233116 73.38164969 -45.96769245 72.92773059 -55.15722656 70.45678711 C-55.7946878 70.28695879 -56.43214903 70.11713047 -57.08892727 69.94215584 C-59.19216934 69.38049514 -61.29330844 68.81135146 -63.39453125 68.2421875 C-64.90211917 67.83809964 -66.40983839 67.43450137 -67.91767883 67.03135681 C-71.96416285 65.94808352 -76.00889435 64.85840225 -80.05327225 63.76729584 C-84.25720869 62.63406318 -88.46249694 61.50587134 -92.66772461 60.37744141 C-97.81158416 58.99697107 -102.95535641 57.61618476 -108.09849548 56.23303223 C-118.52042304 53.43135464 -128.94876728 50.65540255 -139.38499069 47.90746498 C-141.52424771 47.34395575 -143.66325192 46.77949819 -145.80215454 46.21464539 C-146.48884279 46.03330331 -147.17553104 45.85196123 -147.88302803 45.66512394 C-149.23987298 45.30676756 -150.59670881 44.94837668 -151.95353508 44.58994961 C-155.23519502 43.72348368 -158.51747358 42.85950645 -161.80114746 42.0007019 C-165.41334346 41.05474295 -169.02327815 40.10058718 -172.6328125 39.14453125 C-173.6968782 38.86834457 -174.76094391 38.5921579 -175.85725403 38.30760193 C-176.81903061 38.05124466 -177.78080719 37.79488739 -178.77172852 37.53076172 C-179.60696548 37.31128876 -180.44220245 37.0918158 -181.30274963 36.86569214 C-183.31640625 36.15234375 -183.31640625 36.15234375 -185.31640625 34.15234375 C-179.77866362 32.15281806 -174.12648337 30.8633176 -168.39941406 29.54199219 C-166.76362396 29.16099113 -166.76362396 29.16099113 -165.0947876 28.77229309 C-161.48699726 27.93270546 -157.87827582 27.0971945 -154.26953125 26.26171875 C-151.73958762 25.67384848 -149.20970166 25.08572999 -146.67987061 24.49737549 C-140.68378298 23.10334314 -134.68701402 21.7122649 -128.68999934 20.32222676 C-121.96827026 18.76404835 -115.24733864 17.20244443 -108.52646112 15.64059782 C-62.23048286 4.8826567 -62.23048286 4.8826567 -40.36325932 -0.14274693 C-38.18320679 -0.64711629 -36.0046457 -1.15794949 -33.82710171 -1.67304134 C-32.67422696 -1.9443012 -31.52135221 -2.21556105 -30.33354187 -2.49504089 C-29.28651942 -2.74337268 -28.23949697 -2.99170446 -27.16074657 -3.24756145 C-17.6496811 -5.25419225 -9.16507992 -2.52404173 0 0 Z "
        fill="#25AF42" transform="translate(401.31640625,113.84765625)" />
    <path
        d="M0 0 C3.9943725 1.43052472 8.13339201 2.37705604 12.23997498 3.42965126 C14.09346063 3.92330396 15.94626647 4.41951523 17.7984314 4.91810036 C18.75264418 5.17433867 19.70685696 5.43057697 20.68998528 5.69458008 C21.67142572 5.9581814 22.65286617 6.22178272 23.66404724 6.49337196 C25.73686149 7.0491182 27.80970246 7.6047648 29.88256836 8.16031837 C34.21530801 9.32184946 38.54780493 10.48428006 42.88011169 11.6474247 C48.32744604 13.10990373 53.77526002 14.57058628 59.22322655 16.03070831 C69.63973253 18.82253496 80.05463077 21.62024785 90.46755028 24.42542267 C95.95889152 25.9041187 101.45206563 27.37563604 106.94754314 28.8388834 C110.08520804 29.67539984 113.22145009 30.51715277 116.35733223 31.36032486 C117.78036808 31.74165972 119.20403718 32.12064032 120.62837029 32.49710083 C122.54433055 33.00376458 124.45790967 33.51940804 126.37132263 34.03560829 C127.4279158 34.31745476 128.48450897 34.59930122 129.57312012 34.88968849 C132.04295349 35.73165321 132.04295349 35.73165321 134.04295349 37.73165321 C109.1257071 44.927984 84.15732359 51.93525073 59.1394558 58.77370453 C53.72027976 60.25517304 48.30324797 61.74369271 42.8903656 63.24801064 C37.54381688 64.73373365 32.19286219 66.20243056 26.8383503 67.6591835 C24.82700448 68.20942119 22.81725951 68.76554906 20.80927849 69.32794189 C18.02212368 70.1073505 15.22981343 70.864669 12.43528748 71.61715126 C11.62855591 71.84815529 10.82182434 72.07915932 9.99064636 72.31716347 C1.05192401 74.67023319 -7.0568987 72.96700388 -15.80421448 70.54537392 C-17.04310944 70.2127585 -17.04310944 70.2127585 -18.30703259 69.87342358 C-21.02317648 69.14221615 -23.736145 68.39988887 -26.44923401 67.65743446 C-28.38047777 67.13518196 -30.31191428 66.61364177 -32.24353027 66.09276772 C-37.38380456 64.70464481 -42.52145508 63.3070394 -47.65864944 61.90756798 C-52.94625872 60.46892042 -58.23628221 59.03921002 -63.52613831 57.60885048 C-71.86117144 55.3541315 -80.1949855 53.09496896 -88.52784729 50.83223915 C-98.23930463 48.19553832 -107.95396274 45.57096345 -117.67189026 42.95821571 C-118.92508057 42.62128197 -120.17827087 42.28434822 -121.46943665 41.93720436 C-123.80717579 41.30887534 -126.14494269 40.68064953 -128.48274231 40.05254555 C-133.60624232 38.67550561 -138.72893026 37.2954543 -143.85157776 35.91524696 C-145.45419782 35.48352356 -147.05681822 35.05180137 -148.65943909 34.62008095 C-149.74764954 34.3268998 -150.83585999 34.03371864 -151.95704651 33.73165321 C-151.95704651 33.07165321 -151.95704651 32.41165321 -151.95704651 31.73165321 C-130.19405001 25.57511159 -108.28395613 19.96753087 -86.36950493 14.37920475 C-79.38891608 12.59826786 -72.41264377 10.80299989 -65.44483948 8.97262001 C-59.3085032 7.3606801 -53.16586552 5.77599035 -47.01435101 4.22293621 C-43.77792661 3.4049239 -40.54797178 2.57094171 -37.32206345 1.71178436 C-12.66500154 -4.83760896 -12.66500154 -4.83760896 0 0 Z "
        fill="#D72A2B" transform="translate(690.9570465087891,114.26834678649902)" />
    <path
        d="M0 0 C0.64997861 0.17284389 1.29995722 0.34568779 1.96963215 0.52376938 C4.11789127 1.09726495 6.26257881 1.68309107 8.4074707 2.26904297 C9.93859814 2.68045743 11.4699346 3.09109465 13.00146484 3.50100708 C17.10096845 4.60051597 21.19752745 5.71063929 25.2936058 6.8228302 C29.5294954 7.97101674 33.76803861 9.10931872 38.00634766 10.24853516 C44.81726436 12.08051446 51.62666411 13.91802147 58.43481445 15.76025391 C67.17975751 18.1265108 75.92765453 20.48163053 84.67700195 22.83154297 C96.50205866 26.00853073 108.32490223 29.19362651 120.14575195 32.38623047 C120.14575195 33.04623047 120.14575195 33.70623047 120.14575195 34.38623047 C105.2804003 38.62316207 90.31833674 42.44555995 75.3293457 46.21826172 C74.07730913 46.53362066 72.82527256 46.84897961 71.53529549 47.17389488 C66.27734619 48.49777394 61.01918549 49.82079677 55.76013088 51.14027882 C48.29051227 53.01441107 40.82282291 54.89585758 33.35758251 56.78735715 C27.42462368 58.28992089 21.48878426 59.78080534 15.55186653 61.26764488 C13.04362264 61.8975962 10.53627567 62.53113035 8.0298748 63.16837502 C4.53242852 64.05673254 1.03187545 64.93165637 -2.46972656 65.8034668 C-3.49377594 66.06678299 -4.51782532 66.33009918 -5.57290649 66.60139465 C-15.00483341 68.92198218 -22.50038291 68.85996645 -31.82592773 66.25 C-32.6748912 66.02222366 -33.52385468 65.79444733 -34.39854431 65.55976868 C-37.19408543 64.80687377 -39.98497682 64.03805564 -42.77612305 63.26904297 C-44.75943628 62.73150215 -46.74302379 62.19497241 -48.72686768 61.65939331 C-53.96293728 60.24292857 -59.19522889 58.81297401 -64.42681885 57.38006592 C-69.61011663 55.96274626 -74.79672591 54.55766736 -79.9831543 53.15185547 C-86.07759611 51.49915126 -92.17141536 49.8442763 -98.26257324 48.17950439 C-107.85136114 45.55889114 -117.44369561 42.95484765 -127.05151367 40.40478516 C-128.79586908 39.94013154 -130.54019366 39.47536215 -132.28448486 39.01046753 C-134.73992325 38.35604226 -137.19581043 37.70378306 -139.653862 37.05923843 C-141.85801182 36.48125656 -144.05989607 35.8953034 -146.26147461 35.30761719 C-147.49399963 34.9826828 -148.72652466 34.65774841 -149.99639893 34.32296753 C-152.85424805 33.38623047 -152.85424805 33.38623047 -154.85424805 31.38623047 C-145.4354879 28.80600145 -136.00108 26.4343686 -126.47078705 24.29547119 C-122.67457203 23.44306637 -118.88073181 22.58019055 -115.08666992 21.71826172 C-114.27223293 21.53342224 -113.45779594 21.34858276 -112.61867905 21.15814209 C-103.32529214 19.04527554 -94.04505686 16.87633642 -84.764328 14.7086792 C-78.76083898 13.30746146 -72.75600209 11.91202893 -66.75133514 10.51586914 C-61.6130296 9.3206997 -56.47544156 8.1225777 -51.33911133 6.91894531 C-46.26231782 5.72944663 -41.18383256 4.54743936 -36.10410309 3.37054443 C-34.19456131 2.92672306 -32.28564545 2.48019896 -30.37740326 2.03082275 C-27.73554543 1.40907308 -25.0916277 0.79694857 -22.44702148 0.18701172 C-21.67625778 0.00321457 -20.90549408 -0.18058258 -20.1113739 -0.36994934 C-13.02580847 -1.98445613 -7.0692029 -1.90793142 0 0 Z "
        fill="#2E54CD" transform="translate(546.854248046875,75.61376953125)" />
    <path
        d="M0 0 C0.89273621 0.21641647 1.78547241 0.43283295 2.70526123 0.6558075 C5.6620932 1.37457001 8.61600757 2.10465604 11.57006836 2.8347168 C13.66929084 3.34718197 15.76869557 3.8589011 17.86827087 4.36991882 C23.42705786 5.72484755 28.98348897 7.08919899 34.53942871 8.45574951 C40.01000791 9.79996539 45.4824147 11.13668712 50.95483398 12.47338867 C53.12210358 13.00282689 55.28937042 13.53227636 57.45663452 14.06173706 C58.52786938 14.32342556 59.59910423 14.58511406 60.70280075 14.85473251 C63.94063504 15.64613319 67.17818454 16.43869003 70.41567993 17.23147583 C92.20565213 22.56432934 114.02339254 27.77992518 135.84741211 32.97143555 C135.84741211 33.96143555 135.84741211 34.95143555 135.84741211 35.97143555 C135.32303023 36.11389647 134.79864836 36.25635738 134.25837612 36.4031353 C121.47927554 39.87491831 108.70031381 43.34721202 95.92150021 46.82005119 C89.74167743 48.49949661 83.56180909 50.17877399 77.38183594 51.85766602 C71.4165491 53.47824161 65.45138284 55.09926034 59.48629951 56.72058487 C57.21181072 57.33871328 54.9372787 57.95668268 52.66270256 58.57448959 C49.47407607 59.44059477 46.28560445 60.30726788 43.09716797 61.17407227 C41.69022926 61.55601746 41.69022926 61.55601746 40.25486755 61.94567871 C39.37858704 62.18402435 38.50230652 62.42237 37.59947205 62.66793823 C36.77836882 62.8895953 35.95726559 63.11125237 35.11128044 63.33962631 C33.10961044 63.89826021 31.12516485 64.51782948 29.14430237 65.14627075 C22.35294588 66.8460508 16.69562494 65.66738156 10.12207031 63.86694336 C9.27488937 63.64237961 8.42770844 63.41781586 7.55485535 63.18644714 C4.75034453 62.44078819 1.94933658 61.6827634 -0.85180664 60.92456055 C-2.84370316 60.39207441 -4.83579829 59.86033071 -6.82807922 59.32928467 C-12.10194823 57.92123782 -17.37290879 56.50258333 -22.64337158 55.08184814 C-27.83149099 53.68543919 -33.02247601 52.29977505 -38.21313477 50.9128418 C-54.7666617 46.48499173 -71.31268458 42.03056387 -87.83862305 37.50073242 C-88.85854371 37.22141247 -89.87846437 36.94209251 -90.92929173 36.65430832 C-95.78369586 35.32452705 -100.63715695 33.99148355 -105.48893738 32.65216064 C-107.21769701 32.17743781 -108.94648083 31.70280307 -110.67529297 31.22827148 C-111.45008562 31.01304588 -112.22487827 30.79782028 -113.02314949 30.57607269 C-117.04911981 29.4742973 -121.01375702 28.5728616 -125.15258789 27.97143555 C-125.15258789 26.98143555 -125.15258789 25.99143555 -125.15258789 24.97143555 C-123.90067657 24.66315575 -123.90067657 24.66315575 -122.62347412 24.34864807 C-114.5700849 22.36540115 -106.51685124 20.38152389 -98.46377182 18.39701939 C-93.52911727 17.18100758 -88.59434156 15.96548925 -83.65946198 14.75039101 C-80.45547435 13.96130184 -77.25165714 13.17152186 -74.0478363 12.38175583 C-71.63148723 11.78649288 -69.2148613 11.19236334 -66.79821777 10.59829712 C-58.5038866 8.55666963 -50.21851244 6.48452018 -41.94360352 4.36547852 C-39.47697517 3.73700804 -37.0102067 3.10909033 -34.54340363 2.48130608 C-32.97756242 2.08079489 -31.41248986 1.67726474 -29.84825897 1.27050972 C-27.68361538 0.70762762 -25.51659873 0.15489227 -23.34887695 -0.39599609 C-22.12396545 -0.71218399 -20.89905396 -1.02837189 -19.63702393 -1.35414124 C-12.62944241 -2.71048 -6.79123807 -1.69833591 0 0 Z "
        fill="#E5E5E5" transform="translate(812.152587890625,83.028564453125)" />
    <path
        d="M0 0 C0.70362671 0.18703995 1.40725342 0.3740799 2.13220215 0.56678772 C4.44485892 1.18377552 6.75396712 1.81307558 9.06323242 2.44262695 C10.69142653 2.87979344 12.31982301 3.31620687 13.94841003 3.75190735 C18.23599682 4.90124358 22.52065486 6.06115184 26.80480957 7.22320557 C31.10334639 8.38702041 35.40473796 9.54017975 39.70581055 10.69458008 C55.02465346 14.81136295 70.32725419 18.98075363 85.60620117 23.2434082 C85.60620117 23.9034082 85.60620117 24.5634082 85.60620117 25.2434082 C59.77703498 31.59235137 33.89989972 37.7087838 7.98120117 43.6809082 C1.66758353 45.13589842 -4.64600027 46.591034 -10.95928192 48.04748154 C-12.72604431 48.45506326 -14.49283384 48.86252732 -16.25965118 49.26987076 C-26.82482725 51.70664802 -37.37888869 54.18103703 -47.91723633 56.73168945 C-49.93460272 57.21634974 -51.95201536 57.70081756 -53.96948242 58.18505859 C-57.44817633 59.02031964 -60.92135461 59.874529 -64.39233398 60.74121094 C-65.89262377 61.10214444 -67.39309787 61.4623131 -68.89379883 61.8215332 C-70.73458008 62.27641113 -70.73458008 62.27641113 -72.61254883 62.74047852 C-80.40978505 63.77755926 -87.91770173 62.0847608 -95.42358398 60.01855469 C-96.26385132 59.79407654 -97.10411865 59.56959839 -97.96984863 59.33831787 C-100.70957101 58.60444744 -103.44617253 57.85959721 -106.18286133 57.11450195 C-108.09652603 56.59958055 -110.01037809 56.08535499 -111.92440796 55.5717926 C-116.93375231 54.22572598 -121.94051341 52.87028895 -126.94677734 51.51281738 C-132.06690031 50.12627848 -137.18943488 48.74870971 -142.31176758 47.37036133 C-152.3414781 44.67010058 -162.3684798 41.95992435 -172.39379883 39.2434082 C-172.39379883 38.5834082 -172.39379883 37.9234082 -172.39379883 37.2434082 C-159.88985169 33.69019382 -147.33700902 30.43399664 -134.70629883 27.36450195 C-132.84843904 26.91076876 -130.99063715 26.45679847 -129.13288879 26.00260925 C-124.22787518 24.80427463 -119.32197803 23.6096011 -114.4157753 22.41614532 C-111.38034708 21.67763544 -108.34509795 20.9383939 -105.30990601 20.19891357 C-96.26293959 17.99483333 -87.21557514 15.79240498 -78.16734982 13.59349823 C-69.89958068 11.58421699 -61.63299575 9.57032074 -53.36942863 7.5438242 C-48.02084211 6.23224934 -42.67059682 4.92760098 -37.31933594 3.62698364 C-35.26268952 3.12582628 -33.20668427 2.62202954 -31.15136719 2.115448 C-28.38626939 1.43450783 -25.61897891 0.76338059 -22.85083008 0.0949707 C-22.07906937 -0.09764847 -21.30730865 -0.29026764 -20.51216125 -0.48872375 C-19.79868027 -0.65881454 -19.08519928 -0.82890533 -18.35009766 -1.00415039 C-17.44823479 -1.2243837 -17.44823479 -1.2243837 -16.52815247 -1.44906616 C-10.68930857 -2.29034857 -5.65351005 -1.52346302 0 0 Z "
        fill="#E4E4E4" transform="translate(285.393798828125,82.756591796875)" />
    <path
        d="M0 0 C0.9217955 0.22298767 1.843591 0.44597534 2.7933197 0.67572021 C5.83038731 1.41155351 8.86587211 2.15370482 11.90136719 2.89599609 C14.04237241 3.4162445 16.18346702 3.93612515 18.324646 4.45565796 C23.97011337 5.82663682 29.61423099 7.2030971 35.25811768 8.58056641 C39.78533082 9.68451789 44.31349402 10.78454003 48.84171295 11.88435745 C71.72987427 17.44365524 94.61287896 23.02143076 117.44824219 28.79443359 C117.44824219 29.45443359 117.44824219 30.11443359 117.44824219 30.79443359 C112.69307389 32.00162262 107.93785707 33.20862035 103.18261719 34.41552734 C102.08202847 34.69487405 102.08202847 34.69487405 100.95920563 34.97986412 C92.09287293 37.23017084 83.22610724 39.47875452 74.35839844 41.72363281 C73.55045082 41.92817833 72.7425032 42.13272385 71.91007233 42.34346771 C68.67138221 43.16338503 65.43269164 43.98330048 62.19395447 44.80303192 C53.6949832 46.95432342 45.19722641 49.10986006 36.70562744 51.29011536 C33.34864997 52.15151737 29.99026374 53.00731484 26.63146973 53.86160278 C25.19051916 54.22977633 23.75031167 54.60087201 22.31091309 54.97506714 C20.37944378 55.47699464 18.44516986 55.96809376 16.51074219 56.45849609 C15.49109375 56.72098145 14.47144531 56.9834668 13.42089844 57.25390625 C5.45648797 58.70209981 -1.15677119 56.80153327 -8.80175781 54.67333984 C-10.02080307 54.34171844 -11.23984833 54.01009705 -12.49583435 53.66842651 C-15.13682579 52.94998583 -17.77623391 52.22608336 -20.41452026 51.49777222 C-24.58433959 50.34669132 -28.75731669 49.20738452 -32.9309082 48.07006836 C-37.29362809 46.88055968 -41.65607349 45.69007918 -46.01734924 44.49528503 C-56.58384001 41.60059169 -67.1570399 38.73155546 -77.73535156 35.88037109 C-78.46726337 35.68309103 -79.19917519 35.48581097 -79.95326614 35.28255272 C-83.55867377 34.31088784 -87.16419414 33.3396422 -90.76977539 32.36862183 C-97.50899105 30.55348269 -104.24710347 28.73425424 -110.98535156 26.91552734 C-113.2463333 26.30540291 -115.50731912 25.69529359 -117.76831055 25.08520508 C-119.36279297 24.65494792 -120.95727539 24.22469076 -122.55175781 23.79443359 C-122.55175781 23.13443359 -122.55175781 22.47443359 -122.55175781 21.79443359 C-110.65359762 18.53192333 -98.68587395 15.61438964 -86.68066406 12.77490234 C-85.71147474 12.54563868 -84.74228542 12.31637501 -83.74372673 12.08016396 C-78.6323807 10.872146 -73.52020381 9.66770886 -68.4074707 8.46557617 C-64.1976701 7.47492895 -59.98982559 6.47651304 -55.78344727 5.47143555 C-50.66612389 4.24874628 -45.5458126 3.0394353 -40.42307854 1.8396244 C-38.48319233 1.38296182 -36.54438993 0.92166843 -34.6067524 0.45555687 C-31.90188597 -0.19408238 -29.19350374 -0.82640579 -26.48364258 -1.45483398 C-25.69440399 -1.64851059 -24.90516541 -1.84218719 -24.0920105 -2.04173279 C-15.6584395 -3.95688926 -8.22794363 -2.0240173 0 0 Z "
        fill="#25AF42" transform="translate(670.5517578125,49.20556640625)" />
    <path
        d="M0 0 C1.15528702 0.31159058 2.31057404 0.62318115 3.50086975 0.94421387 C4.73824387 1.28754761 5.97561798 1.63088135 7.25048828 1.98461914 C8.56440011 2.34236812 9.87852766 2.69932565 11.19285583 3.05554199 C14.68621006 4.00465552 18.17653814 4.96446068 21.6662941 5.92670822 C25.25553821 6.91471297 28.84722873 7.89373953 32.4387207 8.87353516 C37.38754509 10.22443791 42.33547749 11.57852137 47.28232098 12.93665981 C54.30788404 14.86511257 61.33950867 16.76923127 68.37939453 18.64477539 C70.65513125 19.25361203 72.93075626 19.86286454 75.20635986 20.47219849 C76.56629877 20.8351091 77.92676908 21.19603463 79.28778076 21.55490112 C81.10900734 22.03577331 82.92788904 22.5255018 84.74658203 23.01586914 C86.20318237 23.40343384 86.20318237 23.40343384 87.68920898 23.79882812 C89.94580078 24.58227539 89.94580078 24.58227539 91.94580078 26.58227539 C62.79426266 33.63208122 33.59683606 40.46966626 4.36791992 47.18994141 C3.71172637 47.34088225 3.05553282 47.4918231 2.37945461 47.64733791 C-0.87795633 48.39653808 -4.13565388 49.14442607 -7.39381409 49.8903656 C-14.08695789 51.42555781 -20.7718531 52.98788948 -27.44873047 54.59204102 C-29.50107792 55.08206731 -31.5535636 55.57151027 -33.60609436 56.06076813 C-35.53056545 56.52223973 -37.45300253 56.99216807 -39.37536621 57.46234131 C-40.54361938 57.74071838 -41.71187256 58.01909546 -42.91552734 58.3059082 C-44.44506042 58.67658417 -44.44506042 58.67658417 -46.00549316 59.05474854 C-52.67813408 60.20933583 -58.21064511 59.27669297 -64.61645508 57.51855469 C-65.44343399 57.29904144 -66.2704129 57.0795282 -67.12245178 56.85336304 C-69.84033192 56.12955627 -72.55465715 55.39328713 -75.26904297 54.65649414 C-77.16784079 54.14736696 -79.06681532 53.63889838 -80.96595764 53.13105774 C-84.94077108 52.06622405 -88.91395943 50.99559059 -92.88598633 49.92041016 C-97.9619405 48.54658075 -103.04080009 47.18389697 -108.12081051 45.8251524 C-112.04146698 44.77578085 -115.96096969 43.72215515 -119.88009834 42.66709328 C-121.75163863 42.16345987 -123.62342498 41.66073987 -125.49546623 41.15897179 C-128.11893826 40.45474979 -130.7409187 39.74522365 -133.36254883 39.03417969 C-134.12695282 38.82989853 -134.89135681 38.62561737 -135.67892456 38.41514587 C-140.59492025 37.07401909 -145.30548372 35.43237175 -150.05419922 33.58227539 C-147.81861649 31.34669267 -146.81256307 31.09041921 -143.80589294 30.3571167 C-142.91371567 30.13585617 -142.02153839 29.91459564 -141.10232544 29.68663025 C-140.12021088 29.45077713 -139.13809631 29.21492401 -138.1262207 28.97192383 C-136.57667946 28.59092278 -136.57667946 28.59092278 -134.99583435 28.20222473 C-131.55727722 27.35857304 -128.11633631 26.52509835 -124.67529297 25.69165039 C-122.27166709 25.10414071 -119.86819123 24.51601692 -117.46485901 23.92730713 C-111.75505883 22.53030211 -106.04372227 21.13972695 -100.33162218 19.7521584 C-93.30455696 18.04472305 -86.28002733 16.32693491 -79.25537109 14.60961914 C-67.67844774 11.7813849 -56.10147512 8.95339148 -44.51779175 6.1529541 C-40.03925384 5.0690816 -35.56641198 3.96434081 -31.09573364 2.84851074 C-28.84369545 2.29261698 -26.59165099 1.73674858 -24.33959961 1.1809082 C-23.30768966 0.91946392 -22.27577971 0.65801964 -21.21259975 0.3886528 C-13.71001165 -1.45071469 -7.5547366 -2.06797702 0 0 Z "
        fill="#D72A2B" transform="translate(435.05419921875,45.417724609375)" />
    <path
        d="M0 0 C0.96195282 0.23262543 1.92390564 0.46525085 2.91500854 0.70492554 C6.07224171 1.46958357 9.22789581 2.240552 12.38354492 3.01171875 C14.58444341 3.54633068 16.78542843 4.08058646 18.98649597 4.61450195 C23.58752242 5.73152221 28.18783577 6.85141679 32.78759766 7.97363281 C38.68931799 9.41345997 44.59223776 10.84829158 50.4956255 12.28126526 C56.12534942 13.64803414 61.75446891 15.01728436 67.38354492 16.38671875 C68.45964334 16.64828766 69.53574177 16.90985657 70.64444923 17.17935181 C73.67996932 17.91767454 76.71505335 18.65776161 79.75 19.3984375 C81.10355339 19.72731461 81.10355339 19.72731461 82.48445129 20.06283569 C83.31001526 20.2647049 84.13557922 20.4665741 84.98616028 20.67456055 C85.70306439 20.84932419 86.41996851 21.02408783 87.15859699 21.20414734 C88.80851307 21.63566463 90.43361775 22.15992011 92.05151367 22.69921875 C92.05151367 23.35921875 92.05151367 24.01921875 92.05151367 24.69921875 C69.80047238 30.23269232 47.49174658 35.52658273 25.16134644 40.72946167 C22.21665078 41.41584908 19.27298405 42.10641844 16.33010864 42.80056763 C12.80427911 43.63193124 9.27649022 44.45442554 5.74709702 45.27052307 C3.80425093 45.72194006 1.86340907 46.18195586 -0.07736206 46.64221191 C-1.25984528 46.91376099 -2.44232849 47.18531006 -3.66064453 47.46508789 C-4.68599808 47.70441544 -5.71135162 47.94374298 -6.76777649 48.19032288 C-13.90444821 49.33215064 -19.72866123 48.53606203 -26.5925293 46.63549805 C-27.82839783 46.30622818 -27.82839783 46.30622818 -29.0892334 45.9703064 C-31.79237492 45.24754154 -34.49144617 44.51067172 -37.19067383 43.7734375 C-39.08320128 43.26412709 -40.9759564 42.75566196 -42.868927 42.2480011 C-47.84214562 40.91165 -52.81197576 39.56309096 -57.78125 38.2121582 C-61.82014946 37.11629759 -65.86131572 36.02894812 -69.90264702 34.94209576 C-103.9762364 25.77795612 -103.9762364 25.77795612 -113.94848633 22.69921875 C-113.45348633 21.21421875 -113.45348633 21.21421875 -112.94848633 19.69921875 C-110.44668728 18.82452833 -108.08560547 18.16417359 -105.51391602 17.5703125 C-104.73485901 17.37962189 -103.955802 17.18893127 -103.15313721 16.99246216 C-100.56171083 16.36146109 -97.96624636 15.74909538 -95.37036133 15.13671875 C-93.56420425 14.70090263 -91.75831962 14.26395599 -89.95269775 13.82592773 C-85.17967845 12.67135487 -80.40302436 11.53256625 -75.62548828 10.39685059 C-70.811556 9.24948121 -66.00131007 8.08687666 -61.19067383 6.92578125 C-52.54948734 4.84323817 -43.90796345 2.7622776 -35.25549316 0.72705078 C-32.5432689 0.08703743 -29.84856068 -0.58598775 -27.15026855 -1.28564453 C-26.0282605 -1.57036621 -24.90625244 -1.85508789 -23.75024414 -2.1484375 C-22.33911346 -2.52174194 -22.33911346 -2.52174194 -20.8994751 -2.90258789 C-13.85292684 -3.85341791 -6.80730712 -1.67275469 0 0 Z "
        fill="#2E54CD" transform="translate(550.948486328125,20.30078125)" />
    <path
        d="M0 0 C-0.66 0.33 -1.32 0.66 -2 1 C-1.67 1.66 -1.34 2.32 -1 3 C-8.66640972 5.75071651 -16.33314383 8.50052812 -24 11.25 C-25.76337708 11.88242111 -25.76337708 11.88242111 -27.56237793 12.52761841 C-41.31417228 17.45911631 -55.06813362 22.38438019 -68.828125 27.29296875 C-70.03088577 27.72212082 -71.23364655 28.15127289 -72.47285461 28.59342957 C-78.42624249 30.71744386 -84.38012885 32.84004575 -90.3347168 34.96069336 C-100.49190304 38.58106729 -110.64196582 42.21578573 -120.75390625 45.9609375 C-121.54999298 46.25486893 -122.34607971 46.54880035 -123.16629028 46.85163879 C-126.73357971 48.16925378 -130.29728098 49.49501071 -133.85449219 50.83959961 C-135.63774902 51.50100952 -135.63774902 51.50100952 -137.45703125 52.17578125 C-138.46741455 52.55645752 -139.47779785 52.93713379 -140.51879883 53.3293457 C-143 54 -143 54 -146 53 C-145.34 53 -144.68 53 -144 53 C-144.495 51.515 -144.495 51.515 -145 50 C-137.33359028 47.24928349 -129.66685617 44.49947188 -122 41.75 C-120.82441528 41.32838593 -119.64883057 40.90677185 -118.43762207 40.47238159 C-104.68582772 35.54088369 -90.93186638 30.61561981 -77.171875 25.70703125 C-75.36773384 25.06330315 -75.36773384 25.06330315 -73.52714539 24.40657043 C-67.57375751 22.28255614 -61.61987115 20.15995425 -55.6652832 18.03930664 C-45.50809696 14.41893271 -35.35803418 10.78421427 -25.24609375 7.0390625 C-24.45000702 6.74513107 -23.65392029 6.45119965 -22.83370972 6.14836121 C-19.26642029 4.83074622 -15.70271902 3.50498929 -12.14550781 2.16040039 C-10.95666992 1.71946045 -9.76783203 1.27852051 -8.54296875 0.82421875 C-7.0273938 0.25320435 -7.0273938 0.25320435 -5.48120117 -0.3293457 C-3 -1 -3 -1 0 0 Z "
        fill="#281B11" transform="translate(682,391)" />
    <path
        d="M0 0 C0.99 0.495 0.99 0.495 2 1 C1.42368666 4.99178454 0.20298272 7.6795966 -1.95703125 11.0703125 C-2.56893311 12.0394458 -3.18083496 13.0085791 -3.8112793 14.00708008 C-4.80188354 15.55045044 -4.80188354 15.55045044 -5.8125 17.125 C-6.49030518 18.19451904 -7.16811035 19.26403809 -7.86645508 20.3659668 C-9.25058676 22.54887981 -10.63786999 24.72979774 -12.02832031 26.90869141 C-14.27633847 30.43325875 -16.50660673 33.96871951 -18.734375 37.50610352 C-21.62841548 42.09951757 -24.53471534 46.68518845 -27.43847656 51.27246094 C-33.48749437 60.83064527 -39.50963164 70.40492919 -45.5 80 C-51.06395676 88.91096369 -56.63654719 97.81605592 -62.26953125 106.68359375 C-64.08159574 109.53716296 -65.86834628 112.40432398 -67.63671875 115.28515625 C-68.4453125 116.5859375 -69.25390625 117.88671875 -70.0625 119.1875 C-70.42069824 119.78256348 -70.77889648 120.37762695 -71.14794922 120.99072266 C-72.16015625 122.60546875 -72.16015625 122.60546875 -74 125 C-74.99 125 -75.98 125 -77 125 C-77 121.37125817 -76.07145819 120.16383612 -74.140625 117.125 C-73.52574219 116.14982422 -72.91085937 115.17464844 -72.27734375 114.16992188 C-71.60832031 113.12384766 -70.93929687 112.07777344 -70.25 111 C-69.56550781 109.91783203 -68.88101563 108.83566406 -68.17578125 107.72070312 C-66.12281306 104.47686046 -64.06167266 101.23831473 -62 98 C-60.4696797 95.58198501 -58.94205691 93.16228881 -57.41503906 90.7421875 C-56.4647528 89.23641989 -55.51356778 87.73121915 -54.56152344 86.2265625 C-50.51692662 79.83270885 -46.50622247 73.41795119 -42.5 67 C-36.51600249 57.41483839 -30.49939903 47.85105206 -24.45605469 38.30322266 C-22.96013825 35.93694571 -21.4678904 33.56838995 -19.9765625 31.19921875 C-13.39507638 20.74856542 -6.73407975 10.35298481 0 0 Z "
        fill="#0D1211" transform="translate(758,477)" />
    <path
        d="M0 0 C-0.99 0.33 -1.98 0.66 -3 1 C-2.01 1.99 -2.01 1.99 -1 3 C-13.85496371 6.5248319 -26.71103705 10.04558393 -39.56855488 13.56108856 C-45.5383642 15.19349353 -51.50777775 16.82731721 -57.47631836 18.46435547 C-63.23309021 20.04325467 -68.99086005 21.61846331 -74.74934959 23.19108582 C-76.94940554 23.79261628 -79.14909463 24.39549016 -81.34841347 24.99971008 C-84.42183497 25.84382931 -87.49650997 26.68322198 -90.5715332 27.52148438 C-91.48647049 27.77395432 -92.40140778 28.02642426 -93.34407043 28.2865448 C-94.18119568 28.51372696 -95.01832092 28.74090912 -95.8808136 28.97497559 C-96.60810826 29.17408287 -97.33540293 29.37319016 -98.08473682 29.57833099 C-100 30 -100 30 -103 30 C-102.67 28.68 -102.34 27.36 -102 26 C-97.64718265 24.79279838 -93.29430645 23.5858091 -88.94140625 22.37890625 C-88.26969517 22.19265434 -87.59798409 22.00640244 -86.90591812 21.81450653 C-78.79130627 19.56459957 -70.67615513 17.31666105 -62.55981445 15.07299805 C-61.8205519 14.86862027 -61.08128935 14.6642425 -60.3196249 14.45367146 C-54.10413307 12.73532697 -54.10413307 12.73532697 -51.42806816 11.99567604 C-43.61882316 9.83697365 -35.81125768 7.67282014 -28.01191711 5.47853088 C-24.91178298 4.60681698 -21.80987599 3.74155635 -18.70748901 2.87789917 C-17.36953115 2.50340195 -16.0325339 2.12545431 -14.69656372 1.743927 C-12.90822451 1.23341034 -11.11632977 0.7353954 -9.32421875 0.23828125 C-7.9024231 -0.163302 -7.9024231 -0.163302 -6.4519043 -0.57299805 C-3.91330364 -1.01509827 -2.41237115 -0.83544557 0 0 Z "
        fill="#1B1C1F" transform="translate(944,121)" />
    <path
        d="M0 0 C0.66 0.33 1.32 0.66 2 1 C1.52615372 1.47162567 1.05230743 1.94325134 0.56410217 2.4291687 C-4.35373866 7.32493793 -9.26809707 12.22418257 -14.18041992 17.12548828 C-16.01578553 18.95581569 -17.85204636 20.78524586 -19.68920898 22.61376953 C-22.32509762 25.2375702 -24.95778199 27.86454863 -27.58984375 30.4921875 C-28.41588608 31.31306854 -29.24192841 32.13394958 -30.09300232 32.97970581 C-30.85371536 33.74034332 -31.61442841 34.50098083 -32.39819336 35.28466797 C-33.40746132 36.29060501 -33.40746132 36.29060501 -34.43711853 37.31686401 C-36.08238899 38.93070348 -36.08238899 38.93070348 -37 41 C-37.66 41 -38.32 41 -39 41 C-38.41729578 37.60360053 -37.34349662 35.97550484 -34.90234375 33.57421875 C-34.27005859 32.94644531 -33.63777344 32.31867187 -32.98632812 31.671875 C-32.31021484 31.01703125 -31.63410156 30.3621875 -30.9375 29.6875 C-30.24720703 29.00816406 -29.55691406 28.32882812 -28.84570312 27.62890625 C-25.0013084 23.8680064 -21.06102876 20.27713705 -16.98828125 16.76538086 C-14.98600434 14.98757336 -13.08156659 13.14628516 -11.1875 11.25390625 C-10.50042969 10.568125 -9.81335938 9.88234375 -9.10546875 9.17578125 C-6.06419203 6.12321965 -3.0276463 3.06608322 0 0 Z "
        fill="#B2B003" transform="translate(344,711)" />
    <path
        d="M0 0 C4.83298806 4.02748053 9.38110004 8.24379413 13.80859375 12.7109375 C14.72597069 13.63043686 14.72597069 13.63043686 15.66188049 14.56851196 C17.58947559 16.50164564 19.51353928 18.43824987 21.4375 20.375 C22.75432404 21.69684699 24.07137926 23.01846372 25.38867188 24.33984375 C28.59512373 27.55724299 31.79841629 30.77775681 35 34 C32 34 32 34 29.04492188 31.33789062 C27.84561611 30.11775976 26.65406165 28.8899801 25.46875 27.65625 C24.83642456 27.0125647 24.20409912 26.36887939 23.5526123 25.70568848 C20.84094734 22.94483307 18.14724199 20.16668239 15.45166016 17.39013672 C13.48423857 15.36865727 11.50804429 13.35605782 9.53125 11.34375 C8.92180542 10.7094104 8.31236084 10.0750708 7.68444824 9.42150879 C6.17928049 7.89020486 4.59531145 6.43715103 3 5 C2.01 5 1.02 5 0 5 C-0.66 4.01 -1.32 3.02 -2 2 C-1.34 2 -0.68 2 0 2 C0 1.34 0 0.68 0 0 Z "
        fill="#10230E" transform="translate(695,399)" />
    <path
        d="M0 0 C0.66 0.99 1.32 1.98 2 3 C0.9377415 7.0365823 -1.15451633 9.98206277 -4 13 C-4.99 13 -5.98 13 -7 13 C-5.35821735 8.22390502 -2.73453298 4.20617096 0 0 Z "
        fill="#0E1312" transform="translate(720,537)" />
    <path
        d="M0 0 C0.66 0.99 1.32 1.98 2 3 C0.9377415 7.0365823 -1.15451633 9.98206277 -4 13 C-4.99 13 -5.98 13 -7 13 C-5.35821735 8.22390502 -2.73453298 4.20617096 0 0 Z "
        fill="#0E1312" transform="translate(737,510)" />
    <path
        d="M0 0 C0.66 0.99 1.32 1.98 2 3 C1.06637882 6.39498613 -0.17436337 8.85251616 -3 11 C-3.99 11 -4.98 11 -6 11 C-4.54955729 6.89041233 -2.48889248 3.56741255 0 0 Z "
        fill="#12161A" transform="translate(686,591)" />
    <path
        d="M0 0 C0.66 0.33 1.32 0.66 2 1 C1.45276317 4.37462715 0.9451 6.08235 -1 9 C-1.99 8.67 -2.98 8.34 -4 8 C-1.125 1.125 -1.125 1.125 0 0 Z "
        fill="#0C1110" transform="translate(758,477)" />
    <path
        d="M0 0 C0.66 0.99 1.32 1.98 2 3 C1.125 5.6875 1.125 5.6875 0 8 C-0.99 8 -1.98 8 -3 8 C-3 4.42424104 -1.91159393 2.94704065 0 0 Z "
        fill="#14171E" transform="translate(703,564)" />
    <path
        d="M0 0 C0.66 0.99 1.32 1.98 2 3 C1.125 5.6875 1.125 5.6875 0 8 C-0.99 8 -1.98 8 -3 8 C-3 4.42424104 -1.91159393 2.94704065 0 0 Z "
        fill="#14171E" transform="translate(720,537)" />
    <path
        d="M0 0 C0.66 0.99 1.32 1.98 2 3 C1.125 5.6875 1.125 5.6875 0 8 C-0.99 8 -1.98 8 -3 8 C-3 4.42424104 -1.91159393 2.94704065 0 0 Z "
        fill="#14171E" transform="translate(737,510)" />
    <path
        d="M0 0 C0.66 0.99 1.32 1.98 2 3 C1.125 5.6875 1.125 5.6875 0 8 C-0.99 8 -1.98 8 -3 8 C-3 4.42424104 -1.91159393 2.94704065 0 0 Z "
        fill="#14171E" transform="translate(754,483)" />
    <path
        d="M0 0 C-0.99 0.33 -1.98 0.66 -3 1 C-2.34 1.66 -1.68 2.32 -1 3 C-3.31 3.33 -5.62 3.66 -8 4 C-7.6875 2.0625 -7.6875 2.0625 -7 0 C-3.86650268 -1.04449911 -3.01031744 -0.93423645 0 0 Z "
        fill="#212326" transform="translate(911,130)" />
    <path
        d="M0 0 C1.32 0.33 2.64 0.66 4 1 C3.67 1.99 3.34 2.98 3 4 C0.69 4 -1.62 4 -4 4 C-3.67 3.34 -3.34 2.68 -3 2 C-2.01 2 -1.02 2 0 2 C0 1.34 0 0.68 0 0 Z "
        fill="#101113" transform="translate(900,131)" />
    <path
        d="M0 0 C1.32 0.33 2.64 0.66 4 1 C3.67 1.99 3.34 2.98 3 4 C0.69 4 -1.62 4 -4 4 C-3.67 3.34 -3.34 2.68 -3 2 C-2.01 2 -1.02 2 0 2 C0 1.34 0 0.68 0 0 Z "
        fill="#101113" transform="translate(911,128)" />
    <path
        d="M0 0 C1.32 0.33 2.64 0.66 4 1 C3.67 1.99 3.34 2.98 3 4 C0.69 4 -1.62 4 -4 4 C-3.67 3.34 -3.34 2.68 -3 2 C-2.01 2 -1.02 2 0 2 C0 1.34 0 0.68 0 0 Z "
        fill="#101113" transform="translate(922,125)" />
    <path
        d="M0 0 C1.32 0.33 2.64 0.66 4 1 C3.67 1.99 3.34 2.98 3 4 C0.69 4 -1.62 4 -4 4 C-3.67 3.34 -3.34 2.68 -3 2 C-2.01 2 -1.02 2 0 2 C0 1.34 0 0.68 0 0 Z "
        fill="#101113" transform="translate(933,122)" />
    <path
        d="M0 0 C1.32 0.33 2.64 0.66 4 1 C3.67 1.99 3.34 2.98 3 4 C0.69 4 -1.62 4 -4 4 C-3.67 3.34 -3.34 2.68 -3 2 C-2.01 2 -1.02 2 0 2 C0 1.34 0 0.68 0 0 Z "
        fill="#101113" transform="translate(944,119)" />
    <path
        d="M0 0 C0.33 0.99 0.66 1.98 1 3 C0.01 4.485 0.01 4.485 -1 6 C-1.99 6 -2.98 6 -4 6 C-3.6875 4.125 -3.6875 4.125 -3 2 C-2.01 1.34 -1.02 0.68 0 0 Z "
        fill="#080B0C" transform="translate(698,575)" />
    <path
        d="M0 0 C0.33 0.99 0.66 1.98 1 3 C0.01 4.485 0.01 4.485 -1 6 C-1.99 6 -2.98 6 -4 6 C-3.6875 4.125 -3.6875 4.125 -3 2 C-2.01 1.34 -1.02 0.68 0 0 Z "
        fill="#080B0C" transform="translate(715,548)" />
    <path
        d="M0 0 C0.33 0.99 0.66 1.98 1 3 C0.01 4.485 0.01 4.485 -1 6 C-1.99 6 -2.98 6 -4 6 C-3.6875 4.125 -3.6875 4.125 -3 2 C-2.01 1.34 -1.02 0.68 0 0 Z "
        fill="#080B0C" transform="translate(732,521)" />
    <path
        d="M0 0 C0.33 0.99 0.66 1.98 1 3 C0.01 4.485 0.01 4.485 -1 6 C-1.99 6 -2.98 6 -4 6 C-3.6875 4.125 -3.6875 4.125 -3 2 C-2.01 1.34 -1.02 0.68 0 0 Z "
        fill="#080B0C" transform="translate(749,494)" />
</svg>